<?xml version="1.0" encoding="utf-8"?>
<!-- Generator: Adobe Illustrator 17.1.0, SVG Export Plug-In . SVG Version: 6.00 Build 0)  -->
<!DOCTYPE svg PUBLIC "-//W3C//DTD SVG 1.1//EN" "http://www.w3.org/Graphics/SVG/1.1/DTD/svg11.dtd">
<svg version="1.1" id="Layer_1" xmlns="http://www.w3.org/2000/svg" xmlns:xlink="http://www.w3.org/1999/xlink" x="0px" y="0px"
	 viewBox="0 0 960 560" enable-background="new 0 0 960 560" xml:space="preserve">
<path id="remove" fill="none" stroke="#4BFF00" stroke-miterlimit="1" d="M735.4,559.8H224.6h-0.1c-1.1-0.3-2.2-0.7-3.4-1
	c-2-0.6-4.1-1.4-6.2-2.1c-8.1-2.7-15.9-5.9-23.7-9.5c-8.2-3.6-16.4-7.5-24.5-11.7c-7.9-4-15.3-8.6-22.9-13.3
	c-7.3-4.6-14.3-9.6-20.9-14.8c-7.5-5.6-14.6-11.5-21.8-17.4c-6.5-5.5-13.1-11-19.2-17.2c-6.6-6.6-13.4-12.9-19.4-20.2
	c-6-7.1-11.9-14.6-17.6-22.1c-5.5-7.4-10.5-15.3-15-23.4c-4.6-7.9-8.6-16.2-12-24.9c-1.7-4.5-3.5-9-4.8-13.6
	c-1.2-4.6-2.5-9.1-3.6-13.7c-2.2-9.3-4.4-18.5-5.8-28c-1.4-9.7-2.3-19.4-3.1-29.1c-0.7-9.6-0.6-19.2-0.1-28.7
	c0.5-9.4,1.3-18.7,2.8-28.1c1.4-9.7,3.5-19.2,5.7-28.6c2.2-9.3,4.7-18.4,8.1-27.2c3.5-9,7.8-17.6,12.3-25.9s9.6-16.1,15-23.5
	c5.2-7.2,10.8-14.4,16.5-21.1c6.1-7.2,12.7-13.8,19.5-20.4c6.4-6.4,13.2-12.2,19.9-18c6.7-5.8,13.8-11.4,20.8-16.8
	c7.2-5.6,14.6-10.8,22.1-15.7s15-9.4,22.9-13.4c7.8-4.1,15.5-7.7,23.4-11.2c8-3.5,15.9-6.8,24-9.7c2.1-0.7,4.2-1.4,6.3-2.1
	c0.9-0.3,1.9-0.6,2.9-0.9c0.5-0.1,1.2-0.6,1.7-0.6h511l0,0c-0.1,0-0.1,0-0.2,0c8.1,2.5,16.2,5.2,24.1,8.6c8.1,3.3,16.1,6.9,24,10.7
	c8.1,4,16.1,8,23.9,12.8c7.5,4.5,14.6,9.1,21.7,14.3c7.5,5.4,14.5,10.9,21.8,16.7c6.7,5.5,13.6,11.2,20,17.2
	c6.7,6.1,13.5,12.5,19.7,19.2s12.1,13.6,17.7,20.9c5.6,7.4,11.3,14.8,16.2,22.7c4.8,7.7,9.4,15.8,13.4,24.3
	c4,8.7,7.6,17.7,10.2,27.2c1.2,4.6,2.3,9.3,3.5,13.7c1.1,4.6,2.2,9.3,3.1,13.7c1.8,9.5,3.2,19.1,4.1,28.7c0.8,9.7,1.4,19.4,1.3,29.1
	c-0.1,9.4-0.8,18.7-1.8,28.1c-1,9.7-2.6,19.2-4.7,28.6c-1,4.8-2.1,9.5-3.4,14.2c-1.1,4.6-2.2,9.3-3.7,13.7c-2.9,9-6.3,17.7-10.6,26
	c-4.2,8.4-8.8,16.6-14,24.3c-5.2,7.9-11,15.5-16.9,22.9c-5.6,7.1-11.4,13.8-17.8,20.3c-6.3,6.6-13,12.9-19.9,19.2
	c-6.5,5.8-13.4,11.6-20.2,16.9c-7.3,5.7-14.5,11.2-22,16.5c-3.5,2.6-7.3,4.8-10.8,7.1c-3.7,2.3-7.5,4.8-11.3,6.9
	c-8,4.5-15.9,8.5-24.1,12.3c-8,3.6-15.8,7.1-23.9,10.4C748.7,555.6,742.2,557.8,735.4,559.8"/>
<polygon id="Africa" fill="#44D32F" points="475.7,192.1 451.3,182.9 428.3,192.2 420.7,202.6 413.7,212.5 408.3,226.1 403.2,239.4 
	398.1,252.3 393.9,263.2 404.8,277.2 414.2,289.1 423.6,301 444,294.6 460.5,289.4 468.3,299.2 477.1,310.4 488.2,324.5 487,342.9 
	485.5,362 484,384.5 499.9,412.9 519.6,425.6 525.2,413.5 532.6,397.5 546.1,377.3 558.9,358.3 569.3,342.9 583.3,322.1 
	587.4,304.3 591.8,285.1 595.5,268.7 600.5,247.4 547.5,250.6 543.6,238.2 537.3,218.6 531.6,200.2 "/>
<polygon id="Europe" fill="#44D32F" points="412.3,158.1 404.8,188 433.5,188.9 441.7,165.7 461.1,164.8 465.2,168.2 472.2,172.4 
	489.3,181.3 467.3,159 481.9,165 487.6,169.7 502.4,174.4 528.8,193.1 562.2,182.8 536,161.5 530.1,133.8 508.1,121.9 495.5,75.4 
	466.3,89.1 445.6,109.4 464.6,111.3 477.4,102.1 493.6,98.9 493.3,109.3 478.1,124.5 459.6,128 447.3,135.5 421.5,147.6 "/>
<polygon id="Asia" fill="#44D32F" points="559.4,179.3 530.4,153.4 509.8,107.9 502.4,73.5 539.3,96.9 570.8,84.3 581.9,77.6 
	593.1,85.4 600.3,67.7 650.1,70.2 669.9,78.6 774,83 795.6,96.4 805.7,98.7 790.4,103.6 786.2,117 789.9,153.4 783.7,147.5 
	765.8,110.5 753.9,110.5 753.9,120.9 740.3,124.6 761.7,153.1 758.7,182.1 728.8,187 738.1,214.2 728.6,244.6 713.1,268.9 
	680.1,241.2 676.1,254.8 672.3,267.5 668.6,279.7 665.4,290.8 659.1,307.4 654,320.7 650.2,330.8 645.6,342.9 638.3,332 629,318.2 
	622,307.7 619.6,296.7 616.6,282.7 613.8,270.1 611,257 608.8,246.7 605.8,233 586.5,233 556.8,241.2 537.1,233 537.1,205.3 
	558.8,193.1 "/>
<polygon id="Australia" fill="#44D32F" points="814.6,362 793.8,365.8 771.5,394.3 753.8,396.2 737.2,416.8 740.5,449 786.1,432.2 
	800.8,444.6 802.7,464.8 825.1,461.2 850.2,429 850.2,394.3 831.9,367.5 815.6,380.4 "/>
<polygon id="North_America" fill="#44D32F" points="197.3,255 188.3,246.5 191.4,238.3 196.7,224.7 219.1,229.3 231,216.4 
	239.1,207.6 255.3,190.1 264.5,180.2 280.7,162.7 318.5,141.4 303.2,126.7 291.9,116 276.5,101.3 252.6,130.3 235.9,122.7 
	258.8,105.2 239.1,99.4 228.7,96.3 219.9,93.7 204.1,89 194.5,86.3 178.5,81.5 164,77.3 124.5,85.3 113.6,93.9 99.5,105 85.2,116.2 
	153.3,116.2 144.5,133.1 137.5,146.3 132.3,156.1 124,171.7 128.4,190.1 133,209.5 136.6,225 139.2,236 142.5,249.7 146.5,267.1 
	207.8,287.2 215.5,274 "/>
<polygon id="South_America" fill="#44D32F" points="209,287.5 218.4,303.2 225.8,315.6 221.9,329 217.2,345.5 225.8,359 
	233.9,371.7 243.9,387.4 247.9,406.8 251.8,426.4 254.7,440.8 259.6,465.2 262.4,478.4 266,496.9 284.4,497.8 284.9,486.4 
	285.4,470.3 285.9,458.3 286.4,446.3 298.3,431.7 312.6,414.4 326.3,397.8 329.4,383.2 333.5,363.6 337.5,344.4 338.1,321.4 
	322.7,314.5 290.4,299.7 263.7,287.5 246.4,279.7 217.4,274 "/>
<polygon id="Tazmania" fill="#44D32F" points="806.8,470.2 818.6,470 806.7,486.2 "/>
</svg>
