<?xml version="1.0" encoding="utf-8"?>
<!-- Generator: Adobe Illustrator 17.1.0, SVG Export Plug-In . SVG Version: 6.00 Build 0)  -->
<!DOCTYPE svg PUBLIC "-//W3C//DTD SVG 1.1//EN" "http://www.w3.org/Graphics/SVG/1.1/DTD/svg11.dtd">
<svg version="1.1" id="Layer_1" xmlns="http://www.w3.org/2000/svg" xmlns:xlink="http://www.w3.org/1999/xlink" x="0px" y="0px"
	 viewBox="0 0 960 560" enable-background="new 0 0 960 560" xml:space="preserve">
<path id="remove" fill="none" stroke="#4BFF00" stroke-miterlimit="1" d="M735.4,560H224.6h-0.1c-1.1-0.3-2.2-0.7-3.4-1
	c-2-0.6-4.1-1.4-6.2-2.1c-8.1-2.7-15.9-6-23.7-9.6c-8.2-3.6-16.4-7.6-24.5-11.8c-7.9-4-15.3-8.7-22.9-13.4
	c-7.3-4.7-14.3-9.7-20.9-15c-7.5-5.7-14.6-11.6-21.8-17.6c-6.5-5.6-13.1-11.1-19.2-17.4c-6.6-6.7-13.4-13-19.4-20.4
	c-6-7.2-11.9-14.8-17.6-22.3c-5.5-7.5-10.5-15.5-15-23.7c-4.6-8-8.6-16.4-12-25.2c-1.7-4.5-3.5-9.1-4.8-13.7
	c-1.2-4.7-2.5-9.2-3.6-13.9c-2.2-9.4-4.4-18.7-5.8-28.3c-1.4-9.8-2.3-19.6-3.1-29.4c-0.7-9.7-0.6-19.4-0.1-29
	c0.5-9.5,1.3-18.9,2.8-28.4c1.4-9.8,3.5-19.4,5.7-28.9c2.2-9.4,4.7-18.6,8.1-27.5c3.5-9.1,7.8-17.8,12.3-26.2
	c4.5-8.4,9.6-16.3,15-23.8c5.2-7.3,10.8-14.6,16.5-21.3c6.1-7.3,12.7-14,19.5-20.6c6.4-6.5,13.2-12.3,19.9-18.2
	c6.7-5.9,13.8-11.5,20.8-17c7.2-5.7,14.6-10.9,22.1-15.9s15-9.5,22.9-13.5c7.8-4.1,15.5-7.8,23.4-11.3c8-3.5,15.9-6.9,24-9.8
	c2.1-0.7,4.2-1.4,6.3-2.1c0.9-0.3,1.9-0.6,2.9-0.9c0.5-0.1,1.2-0.6,1.7-0.6h511l0,0c-0.1,0-0.1,0-0.2,0c8.1,2.5,16.2,5.3,24.1,8.7
	c8.1,3.3,16.1,7,24,10.8c8.1,4,16.1,8.1,23.9,12.9c7.5,4.5,14.6,9.2,21.7,14.5c7.5,5.5,14.5,11,21.8,16.9c6.7,5.6,13.6,11.3,20,17.4
	c6.7,6.2,13.5,12.6,19.7,19.4s12.1,13.7,17.7,21.1c5.6,7.5,11.3,15,16.2,22.9c4.8,7.8,9.4,16,13.4,24.6c4,8.8,7.6,17.9,10.2,27.5
	c1.2,4.7,2.3,9.4,3.5,13.9c1.1,4.7,2.2,9.4,3.1,13.9c1.8,9.6,3.2,19.3,4.1,29c0.8,9.8,1.4,19.6,1.3,29.4c-0.1,9.5-0.8,18.9-1.8,28.4
	c-1,9.8-2.6,19.4-4.7,28.9c-1,4.9-2.1,9.6-3.4,14.4c-1.1,4.7-2.2,9.4-3.7,13.9c-2.9,9.1-6.3,17.9-10.6,26.3
	c-4.2,8.5-8.8,16.8-14,24.6c-5.2,8-11,15.7-16.9,23.2c-5.6,7.2-11.4,14-17.8,20.5c-6.3,6.7-13,13-19.9,19.4
	c-6.5,5.9-13.4,11.7-20.2,17.1c-7.3,5.8-14.5,11.3-22,16.7c-3.5,2.6-7.3,4.9-10.8,7.2c-3.7,2.3-7.5,4.9-11.3,7
	c-8,4.5-15.9,8.6-24.1,12.4c-8,3.6-15.8,7.2-23.9,10.5C748.7,555.8,742.2,558,735.4,560"/>
<polygon id="Africa" fill="#44D32F" points="475.7,188.3 451.3,178.9 428.3,188.4 420.7,198.9 413.7,208.9 408.3,222.6 403.2,236.1 
	398.1,249.1 393.9,260.1 404.8,274.3 414.2,286.3 423.6,298.3 444,291.9 460.5,286.6 468.3,296.5 477.1,307.9 488.2,322.1 
	487,340.7 485.5,360 484,382.8 499.9,411.5 519.6,424.3 525.2,412.1 532.6,395.9 546.1,375.5 558.9,356.3 569.3,340.7 583.3,319.7 
	587.4,301.7 591.8,282.3 595.5,265.7 600.5,244.2 547.5,247.4 543.6,234.9 537.3,215 531.6,196.4 "/>
<polygon id="Europe" fill="#44D32F" points="412.3,153.9 404.8,184.1 433.5,185 441.7,161.6 461.1,160.6 465.2,164.1 472.2,168.3 
	489.3,177.3 467.3,154.8 481.9,160.9 487.6,165.6 502.4,170.4 528.8,189.3 562.2,178.8 536,157.3 530.1,129.3 508.1,117.3 
	495.5,70.3 466.3,84.1 445.6,104.6 464.6,106.6 477.4,97.3 493.6,94 493.3,104.5 478.1,119.9 459.6,123.4 447.3,131 421.5,143.3 "/>
<polygon id="Australia" fill="#44D32F" points="814.6,360 793.8,363.9 771.5,392.7 753.8,394.6 737.2,415.4 740.5,448 786.1,431 
	800.8,443.5 802.7,464 825.1,460.3 850.2,427.8 850.2,392.7 831.9,365.6 815.6,378.6 "/>
<polygon id="North_America" fill="#44D32F" points="197.3,251.8 188.3,243.2 191.4,235 196.7,221.2 219.1,225.9 231,212.8 
	239.1,203.9 255.3,186.2 264.5,176.2 280.7,158.5 318.5,137 303.2,122.1 291.9,111.3 276.5,96.5 252.6,125.8 235.9,118.1 
	258.8,100.4 239.1,94.5 228.7,91.4 219.9,88.8 204.1,84 194.5,81.3 178.5,76.4 164,72.2 124.5,80.3 113.6,89 99.5,100.2 85.2,111.5 
	153.3,111.5 144.5,128.6 137.5,141.9 132.3,151.9 124,167.6 128.4,186.2 133,205.8 136.6,221.5 139.2,232.6 142.5,246.5 
	146.5,264.1 207.8,284.4 215.5,271.1 "/>
<polygon id="South_America" fill="#44D32F" points="209,284.7 218.4,300.6 225.8,313.1 221.9,326.7 217.2,343.3 225.8,357 
	233.9,369.8 243.9,385.7 247.9,405.3 251.8,425.1 254.7,439.7 259.6,464.4 262.4,477.7 266,496.4 284.4,497.3 284.9,485.8 
	285.4,469.5 285.9,457.4 286.4,445.3 298.3,430.5 312.6,413 326.3,396.2 329.4,381.5 333.5,361.6 337.5,342.2 338.1,319 322.7,312 
	290.4,297 263.7,284.7 246.4,276.8 217.4,271.1 "/>
<polygon id="Tazmania" fill="#44D32F" points="806.8,469.4 818.6,469.2 806.7,485.6 "/>
<polygon fill="#44D32F" points="617.4,208.6 649.5,230.9 686.9,244.3 716.7,244.2 731.5,264.5 762.3,275.6 803,250.1 812.9,238.1 
	806.4,228.4 790.6,237.1 784,251.9 778.9,256.5 763.7,253.2 750.6,232.1 777.5,203.8 796,173.2 822.4,162.7 833.6,150.9 
	817.6,101.6 724.2,103.9 654.9,140.2 640.5,166.9 632.3,204.7 "/>
</svg>
