<?xml version="1.0" encoding="utf-8"?>
<!-- Generator: Adobe Illustrator 17.1.0, SVG Export Plug-In . SVG Version: 6.00 Build 0)  -->
<!DOCTYPE svg PUBLIC "-//W3C//DTD SVG 1.1//EN" "http://www.w3.org/Graphics/SVG/1.1/DTD/svg11.dtd">
<svg version="1.1" id="Layer_1" xmlns="http://www.w3.org/2000/svg" xmlns:xlink="http://www.w3.org/1999/xlink" x="0px" y="0px"
	 viewBox="0 0 64 64" enable-background="new 0 0 64 64" xml:space="preserve">
<path id="remove" fill="none" stroke="#4BFF00" stroke-miterlimit="1" d="M49,50.7H15h0c-0.1,0-0.1,0-0.2-0.1
	c-0.1,0-0.3-0.1-0.4-0.1c-0.5-0.2-1.1-0.4-1.6-0.6c-0.5-0.2-1.1-0.5-1.6-0.8c-0.5-0.3-1-0.6-1.5-0.9c-0.5-0.3-1-0.6-1.4-1
	c-0.5-0.4-1-0.8-1.5-1.2c-0.4-0.4-0.9-0.7-1.3-1.2c-0.4-0.4-0.9-0.9-1.3-1.4C3.8,43,3.4,42.5,3,42c-0.4-0.5-0.7-1-1-1.6
	c-0.3-0.5-0.6-1.1-0.8-1.7c-0.1-0.3-0.2-0.6-0.3-0.9c-0.1-0.3-0.2-0.6-0.2-0.9c-0.1-0.6-0.3-1.2-0.4-1.9c-0.1-0.7-0.2-1.3-0.2-2
	c0-0.6,0-1.3,0-1.9c0-0.6,0.1-1.3,0.2-1.9c0.1-0.7,0.2-1.3,0.4-1.9c0.1-0.6,0.3-1.2,0.5-1.8c0.2-0.6,0.5-1.2,0.8-1.7
	c0.3-0.6,0.6-1.1,1-1.6c0.3-0.5,0.7-1,1.1-1.4c0.4-0.5,0.8-0.9,1.3-1.4c0.4-0.4,0.9-0.8,1.3-1.2c0.4-0.4,0.9-0.8,1.4-1.1
	c0.5-0.4,1-0.7,1.5-1.1c0.5-0.3,1-0.6,1.5-0.9c0.5-0.3,1-0.5,1.6-0.8c0.5-0.2,1.1-0.5,1.6-0.7c0.1,0,0.3-0.1,0.4-0.1
	c0.1,0,0.1,0,0.2-0.1c0,0,0.1,0,0.1,0H49l0,0c0,0,0,0,0,0c0.5,0.2,1.1,0.4,1.6,0.6c0.5,0.2,1.1,0.5,1.6,0.7c0.5,0.3,1.1,0.5,1.6,0.9
	c0.5,0.3,1,0.6,1.4,1c0.5,0.4,1,0.7,1.5,1.1c0.4,0.4,0.9,0.8,1.3,1.2c0.4,0.4,0.9,0.8,1.3,1.3c0.4,0.5,0.8,0.9,1.2,1.4
	c0.4,0.5,0.8,1,1.1,1.5c0.3,0.5,0.6,1.1,0.9,1.6c0.3,0.6,0.5,1.2,0.7,1.8c0.1,0.3,0.2,0.6,0.2,0.9c0.1,0.3,0.1,0.6,0.2,0.9
	c0.1,0.6,0.2,1.3,0.3,1.9c0.1,0.7,0.1,1.3,0.1,2c0,0.6-0.1,1.3-0.1,1.9c-0.1,0.7-0.2,1.3-0.3,1.9c-0.1,0.3-0.1,0.6-0.2,1
	c-0.1,0.3-0.1,0.6-0.2,0.9c-0.2,0.6-0.4,1.2-0.7,1.8c-0.3,0.6-0.6,1.1-0.9,1.6c-0.3,0.5-0.7,1-1.1,1.5c-0.4,0.5-0.8,0.9-1.2,1.4
	c-0.4,0.4-0.9,0.9-1.3,1.3c-0.4,0.4-0.9,0.8-1.3,1.1c-0.5,0.4-1,0.8-1.5,1.1c-0.2,0.2-0.5,0.3-0.7,0.5c-0.2,0.2-0.5,0.3-0.8,0.5
	c-0.5,0.3-1.1,0.6-1.6,0.8c-0.5,0.2-1.1,0.5-1.6,0.7C49.9,50.4,49.5,50.5,49,50.7"/>
<polygon id="Africa" fill="#44D32F" points="31.7,25.9 30.1,25.3 28.6,25.9 28,26.6 27.6,27.3 27.2,28.2 26.9,29.1 26.5,29.9 
	26.3,30.7 27,31.6 27.6,32.4 28.2,33.2 29.6,32.8 30.7,32.4 31.2,33.1 31.8,33.9 32.5,34.8 32.5,36 32.4,37.3 32.3,38.9 33.3,40.8 
	34.6,41.6 35,40.8 35.5,39.7 36.4,38.4 37.3,37.1 38,36 38.9,34.6 39.2,33.4 39.5,32.2 39.7,31 40,29.6 36.5,29.8 36.2,29 
	35.8,27.7 35.4,26.4 "/>
<polygon id="Europe" fill="#44D32F" points="27.5,23.6 27,25.6 28.9,25.7 29.4,24.1 30.7,24 31,24.3 31.5,24.6 32.6,25.2 31.2,23.7 
	32.1,24.1 32.5,24.4 33.5,24.7 35.3,26 37.5,25.3 35.7,23.8 35.3,22 33.9,21.2 33,18 31.1,18.9 29.7,20.3 31,20.4 31.8,19.8 
	32.9,19.6 32.9,20.3 31.9,21.3 30.6,21.6 29.8,22.1 28.1,22.9 "/>
<polygon id="Australia" fill="#44D32F" points="54.3,37.3 52.9,37.6 51.4,39.5 50.3,39.6 49.1,41 49.4,43.2 52.4,42.1 53.4,42.9 
	53.5,44.3 55,44 56.7,41.9 56.7,39.5 55.5,37.7 54.4,38.6 "/>
<polygon id="North_America" fill="#44D32F" points="13.2,30.1 12.6,29.5 12.8,29 13.1,28.1 14.6,28.4 15.4,27.5 15.9,26.9 17,25.7 
	17.6,25.1 18.7,23.9 21.2,22.5 20.2,21.5 19.5,20.8 18.4,19.8 16.8,21.7 15.7,21.2 17.3,20 15.9,19.6 15.2,19.4 14.7,19.3 
	13.6,18.9 13,18.8 11.9,18.4 10.9,18.1 8.3,18.7 7.6,19.3 6.6,20 5.7,20.8 10.2,20.8 9.6,21.9 9.2,22.8 8.8,23.5 8.3,24.5 8.6,25.7 
	8.9,27.1 9.1,28.1 9.3,28.8 9.5,29.8 9.8,30.9 13.9,32.3 14.4,31.4 "/>
<polygon id="South_America" fill="#44D32F" points="13.9,32.3 14.6,33.4 15.1,34.2 14.8,35.1 14.5,36.2 15.1,37.1 15.6,38 16.3,39 
	16.5,40.4 16.8,41.7 17,42.6 17.3,44.3 17.5,45.2 17.7,46.4 19,46.5 19,45.7 19,44.6 19.1,43.8 19.1,43 19.9,42 20.8,40.9 
	21.8,39.7 22,38.8 22.2,37.4 22.5,36.1 22.5,34.6 21.5,34.1 19.4,33.1 17.6,32.3 16.4,31.8 14.5,31.4 "/>
<polygon id="Tazmania" fill="#44D32F" points="53.8,44.6 54.6,44.6 53.8,45.7 "/>
<polygon fill="#44D32F" points="41.2,27.2 43.3,28.7 45.8,29.6 47.8,29.6 48.8,31 50.8,31.7 53.5,30 54.2,29.2 53.8,28.6 52.7,29.1 
	52.3,30.1 51.9,30.4 50.9,30.2 50,28.8 51.8,26.9 53.1,24.9 54.8,24.2 55.6,23.4 54.5,20.1 48.3,20.3 43.7,22.7 42.7,24.5 42.2,27 
	"/>
<polygon points="31.6,30.5 31.4,30.9 31.6,31 31.6,31.7 32,32 32.3,31.3 32.3,30.5 31.8,29.4 31.8,28.9 32.1,28.4 31.4,28 
	31.2,28.4 31.2,29 30.8,29.7 30.8,30.2 "/>
</svg>
