<?xml version="1.0" encoding="utf-8"?>
<!-- Generator: Adobe Illustrator 17.1.0, SVG Export Plug-In . SVG Version: 6.00 Build 0)  -->
<!DOCTYPE svg PUBLIC "-//W3C//DTD SVG 1.1//EN" "http://www.w3.org/Graphics/SVG/1.1/DTD/svg11.dtd">
<svg version="1.1" id="Layer_1" xmlns="http://www.w3.org/2000/svg" xmlns:xlink="http://www.w3.org/1999/xlink" x="0px" y="0px"
	 viewBox="0 2.5 960 560" enable-background="new 0 0 960 560" xml:space="preserve">
<path id="remove" fill="none" stroke="#4BFF00" stroke-miterlimit="1" d="M735.4,553.9H224.6h-0.1c-1.1-0.3-2.2-0.7-3.4-1
	c-2-0.6-4.1-1.4-6.2-2.1c-8.1-2.7-15.9-5.9-23.7-9.5c-8.2-3.6-16.4-7.5-24.5-11.7c-7.9-4-15.3-8.6-22.9-13.3
	c-7.3-4.6-14.3-9.6-20.9-14.8c-7.5-5.6-14.6-11.5-21.8-17.4c-6.5-5.5-13.1-11-19.2-17.2c-6.6-6.6-13.4-12.9-19.4-20.2
	c-6-7.1-11.9-14.6-17.6-22.1c-5.5-7.4-10.5-15.3-15-23.4c-4.6-7.9-8.6-16.2-12-24.9c-1.7-4.5-3.5-9-4.8-13.6
	c-1.2-4.6-2.5-9.1-3.6-13.7c-2.2-9.3-4.4-18.5-5.8-28c-1.4-9.7-2.3-19.4-3.1-29.1c-0.7-9.6-0.6-19.2-0.1-28.7
	c0.5-9.4,1.3-18.7,2.8-28.1c1.4-9.7,3.5-19.2,5.7-28.6c2.2-9.3,4.7-18.4,8.1-27.2c3.5-9,7.8-17.6,12.3-25.9s9.6-16.1,15-23.5
	c5.2-7.2,10.8-14.4,16.5-21.1C67,101.6,73.6,95,80.4,88.4c6.4-6.4,13.2-12.2,19.9-18c6.7-5.8,13.8-11.4,20.8-16.8
	c7.2-5.6,14.6-10.8,22.1-15.7s15-9.4,22.9-13.4c7.8-4.1,15.5-7.7,23.4-11.2c8-3.5,15.9-6.8,24-9.7c2.1-0.7,4.2-1.4,6.3-2.1
	c0.9-0.3,1.9-0.6,2.9-0.9c0.5-0.1,1.2-0.6,1.7-0.6h511l0,0c-0.1,0-0.1,0-0.2,0c8.1,2.5,16.2,5.2,24.1,8.6c8.1,3.3,16.1,6.9,24,10.7
	c8.1,4,16.1,8,23.9,12.8c7.5,4.5,14.6,9.1,21.7,14.3c7.5,5.4,14.5,10.9,21.8,16.7c6.7,5.5,13.6,11.2,20,17.2
	c6.7,6.1,13.5,12.5,19.7,19.2s12.1,13.6,17.7,20.9c5.6,7.4,11.3,14.8,16.2,22.7c4.8,7.7,9.4,15.8,13.4,24.3
	c4,8.7,7.6,17.7,10.2,27.2c1.2,4.6,2.3,9.3,3.5,13.7c1.1,4.6,2.2,9.3,3.1,13.7c1.8,9.5,3.2,19.1,4.1,28.7c0.8,9.7,1.4,19.4,1.3,29.1
	c-0.1,9.4-0.8,18.7-1.8,28.1c-1,9.7-2.6,19.2-4.7,28.6c-1,4.8-2.1,9.5-3.4,14.2c-1.1,4.6-2.2,9.3-3.7,13.7c-2.9,9-6.3,17.7-10.6,26
	c-4.2,8.4-8.8,16.6-14,24.3c-5.2,7.9-11,15.5-16.9,22.9c-5.6,7.1-11.4,13.8-17.8,20.3c-6.3,6.6-13,12.9-19.9,19.2
	c-6.5,5.8-13.4,11.6-20.2,16.9c-7.3,5.7-14.5,11.2-22,16.5c-3.5,2.6-7.3,4.8-10.8,7.1c-3.7,2.3-7.5,4.8-11.3,6.9
	c-8,4.5-15.9,8.5-24.1,12.3c-8,3.6-15.8,7.1-23.9,10.4C748.7,549.6,742.2,551.9,735.4,553.9"/>
<polygon id="Tazmania" fill="#002D3F" points="340,487.8 373,504.3 284.7,512.4 "/>
<polygon fill="#002D3F" points="752.8,386.8 770.5,354 766.4,330.6 780.1,292.5 758.6,270.9 732.8,288.5 624.9,275.2 564.1,262.4 
	553.9,314.1 762.1,408.2 "/>
<polygon fill="#002D3F" points="901.8,138.1 643.8,153.1 639.5,136.1 658.8,127.1 690.8,107.1 823.8,119.1 878.8,125.1 "/>
<polygon fill="#002D3F" points="645.8,115.1 695.8,115.1 688.8,142.3 518.8,164.1 431.8,142.3 415.8,127.1 456.8,107.1 500.8,101.1 
	579.8,90.1 633.8,113.1 "/>
<polygon fill="#002D3F" points="471.8,107.6 531.8,121.6 494.8,144.6 458.8,144.6 446.8,155.6 420.8,155.6 370.8,155.6 318.8,128.6 
	251.8,129.6 250.2,110.8 323.8,105.6 382.8,98.6 "/>
</svg>
