<?xml version="1.0" encoding="utf-8"?>
<!-- Generator: Adobe Illustrator 17.1.0, SVG Export Plug-In . SVG Version: 6.00 Build 0)  -->
<!DOCTYPE svg PUBLIC "-//W3C//DTD SVG 1.1//EN" "http://www.w3.org/Graphics/SVG/1.1/DTD/svg11.dtd">
<svg version="1.1" id="Layer_1" xmlns="http://www.w3.org/2000/svg" xmlns:xlink="http://www.w3.org/1999/xlink" x="0px" y="0px"
	 viewBox="0 2.7 960 554.2" enable-background="new 0 2.7 960 554.2" xml:space="preserve">
<path id="remove" fill="none" stroke="#000000" stroke-miterlimit="1" d="M735.4,556.9H224.6h-0.1c-1.1-0.3-2.2-0.7-3.4-1
	c-2-0.6-4.1-1.4-6.2-2.1c-8.1-2.7-15.9-5.9-23.7-9.5c-8.2-3.6-16.4-7.5-24.5-11.7c-7.9-4-15.3-8.6-22.9-13.3
	c-7.3-4.6-14.3-9.6-20.9-14.8c-7.5-5.6-14.6-11.5-21.8-17.4c-6.5-5.5-13.1-11-19.2-17.2c-6.6-6.6-13.4-12.9-19.4-20.2
	c-6-7.1-11.9-14.6-17.6-22.1c-5.5-7.4-10.5-15.3-15-23.4c-4.6-7.9-8.6-16.2-12-24.9c-1.7-4.5-3.5-9-4.8-13.6
	c-1.2-4.6-2.5-9.1-3.6-13.7c-2.2-9.3-4.4-18.5-5.8-28c-1.4-9.7-2.3-19.4-3.1-29.1c-0.7-9.6-0.6-19.2-0.1-28.7
	c0.5-9.4,1.3-18.7,2.8-28.1c1.4-9.7,3.5-19.2,5.7-28.6c2.2-9.3,4.7-18.4,8.1-27.2c3.5-9,7.8-17.6,12.3-25.9s9.6-16.1,15-23.5
	c5.2-7.2,10.8-14.4,16.5-21.1c6.1-7.2,12.7-13.8,19.5-20.4c6.4-6.4,13.2-12.2,19.9-18c6.7-5.8,13.8-11.4,20.8-16.8
	c7.2-5.6,14.6-10.8,22.1-15.7s15-9.4,22.9-13.4c7.8-4.1,15.5-7.7,23.4-11.2c8-3.5,15.9-6.8,24-9.7c2.1-0.7,4.2-1.4,6.3-2.1
	c0.9-0.3,1.9-0.6,2.9-0.9c0.5-0.1,1.2-0.6,1.7-0.6h511l0,0c-0.1,0-0.1,0-0.2,0c8.1,2.5,16.2,5.2,24.1,8.6c8.1,3.3,16.1,6.9,24,10.7
	c8.1,4,16.1,8,23.9,12.8c7.5,4.5,14.6,9.1,21.7,14.3c7.5,5.4,14.5,10.9,21.8,16.7c6.7,5.5,13.6,11.2,20,17.2
	c6.7,6.1,13.5,12.5,19.7,19.2c6.2,6.7,12.1,13.6,17.7,20.9c5.6,7.4,11.3,14.8,16.2,22.7c4.8,7.7,9.4,15.8,13.4,24.3
	c4,8.7,7.6,17.7,10.2,27.2c1.2,4.6,2.3,9.3,3.5,13.7c1.1,4.6,2.2,9.3,3.1,13.7c1.8,9.5,3.2,19.1,4.1,28.7c0.8,9.7,1.4,19.4,1.3,29.1
	c-0.1,9.4-0.8,18.7-1.8,28.1c-1,9.7-2.6,19.2-4.7,28.6c-1,4.8-2.1,9.5-3.4,14.2c-1.1,4.6-2.2,9.3-3.7,13.7c-2.9,9-6.3,17.7-10.6,26
	c-4.2,8.4-8.8,16.6-14,24.3c-5.2,7.9-11,15.5-16.9,22.9c-5.6,7.1-11.4,13.8-17.8,20.3c-6.3,6.6-13,12.9-19.9,19.2
	c-6.5,5.8-13.4,11.6-20.2,16.9c-7.3,5.7-14.5,11.2-22,16.5c-3.5,2.6-7.3,4.8-10.8,7.1c-3.7,2.3-7.5,4.8-11.3,6.9
	c-8,4.5-15.9,8.5-24.1,12.3c-8,3.6-15.8,7.1-23.9,10.4C748.7,552.7,742.2,554.9,735.4,556.9"/>
<polygon id="Africa" fill="#44D32F" points="475.7,189.2 451.3,180 428.3,189.3 420.7,199.7 413.7,209.6 408.3,223.2 403.2,236.5 
	398.1,249.4 393.9,260.3 404.8,274.3 414.2,286.2 423.6,298.1 444,291.7 460.5,286.5 468.3,296.3 477.1,307.5 488.2,321.6 487,340 
	485.5,359.1 484,381.6 499.9,410 519.6,422.7 525.2,410.6 532.6,394.6 546.1,374.4 558.9,355.4 569.3,340 583.3,319.2 587.4,301.4 
	591.8,282.2 595.5,265.8 600.5,244.5 547.5,247.7 543.6,235.3 537.3,215.7 531.6,197.3 "/>
<polygon id="Europe" fill="#44D32F" points="412.3,155.2 404.8,185.1 433.5,186 441.7,162.8 461.1,161.9 465.2,165.3 472.2,169.5 
	489.3,178.4 467.3,156.1 481.9,162.1 487.6,166.8 502.4,171.5 528.8,190.2 562.2,179.9 536,158.6 530.1,130.9 508.1,119 495.5,72.5 
	466.3,86.2 445.6,106.5 464.6,108.4 477.4,99.2 493.6,96 493.3,106.4 478.1,121.6 459.6,125.1 447.3,132.6 421.5,144.7 "/>
<polygon id="Asia" fill="#373737" points="559.4,176.4 530.4,150.5 509.8,105 502.4,70.6 539.3,94 570.8,81.4 581.9,74.7 
	593.1,82.5 600.3,64.8 650.1,67.3 669.9,75.7 774,80.1 795.6,93.5 805.7,95.8 790.4,100.7 786.2,114.1 789.9,150.5 783.7,144.6 
	765.8,107.6 753.9,107.6 753.9,118 740.3,121.7 761.7,150.2 758.7,179.2 728.8,184.1 738.1,211.3 728.6,241.7 713.1,266 
	680.1,238.3 676.1,251.9 672.3,264.6 668.6,276.8 665.4,287.9 659.1,304.5 654,317.8 650.2,327.9 645.6,340 638.3,329.1 629,315.3 
	622,304.8 619.6,293.8 616.6,279.8 613.8,267.2 611,254.1 608.8,243.8 605.8,230.1 586.5,230.1 556.8,238.3 537.1,230.1 
	537.1,202.4 558.8,190.2 "/>
<polygon id="Australia" fill="#44D32F" points="814.6,359.1 793.8,362.9 771.5,391.4 753.8,393.3 737.2,413.9 740.5,446.1 
	786.1,429.3 800.8,441.7 802.7,461.9 825.1,458.3 850.2,426.1 850.2,391.4 831.9,364.6 815.6,377.5 "/>
<polygon id="North_America" fill="#44D32F" points="197.3,252.1 188.3,243.6 191.4,235.4 196.7,221.8 219.1,226.4 231,213.5 
	239.1,204.7 255.3,187.2 264.5,177.3 280.7,159.8 318.5,138.5 303.2,123.8 291.9,113.1 276.5,98.4 252.6,127.4 235.9,119.8 
	258.8,102.3 239.1,96.5 228.7,93.4 219.9,90.8 204.1,86.1 194.5,83.4 178.5,78.6 164,74.4 124.5,82.4 113.6,91 99.5,102.1 
	85.2,113.3 153.3,113.3 144.5,130.2 137.5,143.4 132.3,153.2 124,168.8 128.4,187.2 133,206.6 136.6,222.1 139.2,233.1 142.5,246.8 
	146.5,264.2 207.8,284.3 215.5,271.1 "/>
<polygon id="South_America" fill="#44D32F" points="209,284.6 218.4,300.3 225.8,312.7 221.9,326.1 217.2,342.6 225.8,356.1 
	233.9,368.8 243.9,384.5 247.9,403.9 251.8,423.5 254.7,437.9 259.6,462.3 262.4,475.5 266,494 284.4,494.9 284.9,483.5 
	285.4,467.4 285.9,455.4 286.4,443.4 298.3,428.8 312.6,411.5 326.3,394.9 329.4,380.3 333.5,360.7 337.5,341.5 338.1,318.5 
	322.7,311.6 290.4,296.8 263.7,284.6 246.4,276.8 217.4,271.1 "/>
<polygon id="Tazmania" fill="#44D32F" points="806.8,467.3 818.6,467.1 806.7,483.3 "/>
<polygon opacity="0.74" fill="#FFFFFF" points="338.1,120.8 210.8,84.9 188.9,220.9 254.5,284.1 282.3,378.8 338.1,297.8 
	262.7,212.8 256.1,173.1 303.9,168.8 "/>
<polygon opacity="0.74" fill="#FFFFFF" points="347.9,242.4 339.6,279.8 406.5,266.4 448.8,191 395,195.2 392.3,172.2 369.3,162.8 
	330.9,115.8 322.8,184.1 "/>
<ellipse fill="#010500" cx="491.6" cy="265.4" rx="16.6" ry="18.1"/>
<circle fill="#010500" cx="468" cy="195.1" r="2.2"/>
<circle fill="#010500" cx="441.8" cy="151.2" r="2.6"/>
</svg>
