<?xml version="1.0" encoding="utf-8"?>
<!-- Generator: Adobe Illustrator 17.1.0, SVG Export Plug-In . SVG Version: 6.00 Build 0)  -->
<!DOCTYPE svg PUBLIC "-//W3C//DTD SVG 1.1//EN" "http://www.w3.org/Graphics/SVG/1.1/DTD/svg11.dtd">
<svg version="1.1" id="Layer_1" xmlns="http://www.w3.org/2000/svg" xmlns:xlink="http://www.w3.org/1999/xlink" x="0px" y="0px"
	 viewBox="-32 -0.2 989.8 532.2" enable-background="new -32 -0.2 989.8 532.2" xml:space="preserve">
<path id="remove" fill="none" stroke="#000000" stroke-miterlimit="1" enable-background="new    " d="M726.3,532H199.7h-0.1
	c-1.1-0.3-2.3-0.7-3.5-1c-2.1-0.6-4.2-1.3-6.4-2c-8.3-2.6-16.4-5.7-24.4-9.1c-8.5-3.5-16.9-7.2-25.3-11.2
	c-8.1-3.8-15.8-8.3-23.6-12.8c-7.5-4.4-14.7-9.2-21.6-14.2c-7.7-5.4-15.1-11-22.5-16.7c-6.7-5.3-13.5-10.6-19.8-16.5
	c-6.8-6.3-13.8-12.4-20-19.4c-6.2-6.8-12.3-14-18.1-21.2c-5.7-7.1-10.8-14.7-15.5-22.5c-4.7-7.6-8.9-15.6-12.4-23.9
	c-1.8-4.3-3.6-8.6-5-13.1c-1.2-4.4-2.6-8.7-3.7-13.2c-2.3-8.9-4.5-17.8-6-26.9c-1.4-9.3-2.4-18.6-3.2-27.9
	c-0.7-9.2-0.6-18.4-0.1-27.6c0.5-9,1.3-18,2.9-27c1.4-9.3,3.6-18.4,5.9-27.5c2.3-8.9,4.8-17.7,8.4-26.1c3.6-8.6,8-16.9,12.7-24.9
	c4.7-8,9.9-15.5,15.5-22.6c5.4-6.9,11.1-13.8,17-20.3c6.3-6.9,13.1-13.3,20.1-19.6c6.6-6.1,13.6-11.7,20.5-17.3
	c6.9-5.6,14.2-10.9,21.4-16.1C100.3,46,108,41,115.7,36.3c7.7-4.7,15.5-9,23.6-12.9c8-3.9,16-7.4,24.1-10.8
	c8.2-3.4,16.4-6.5,24.7-9.3c2.2-0.7,4.3-1.3,6.5-2c0.9-0.3,2-0.6,3-0.9c0.5-0.1,1.2-0.6,1.8-0.6h526.9l0,0c-0.1,0-0.1,0-0.2,0
	c8.4,2.4,16.7,5,24.8,8.3c8.4,3.2,16.6,6.6,24.7,10.3c8.4,3.8,16.6,7.7,24.6,12.3c7.7,4.3,15.1,8.7,22.4,13.7
	c7.7,5.2,15,10.5,22.5,16c6.9,5.3,14,10.8,20.6,16.5c6.9,5.9,13.9,12,20.3,18.4s12.5,13.1,18.3,20.1c5.8,7.1,11.6,14.2,16.7,21.8
	c5,7.4,9.7,15.2,13.8,23.3c4.1,8.4,7.8,17,10.5,26.1c1.2,4.4,2.4,8.9,3.6,13.2c1.1,4.4,2.3,8.9,3.2,13.2c1.9,9.1,3.3,18.3,4.2,27.6
	c0.8,9.3,1.4,18.6,1.3,27.9c-0.1,9-0.8,18-1.9,27c-1,9.3-2.7,18.4-4.8,27.5c-1,4.6-2.2,9.1-3.5,13.6c-1.1,4.4-2.3,8.9-3.8,13.2
	c-3,8.6-6.5,17-10.9,25c-4.3,8.1-9.1,15.9-14.4,23.3c-5.4,7.6-11.3,14.9-17.4,22c-5.8,6.8-11.8,13.3-18.4,19.5
	C876,445.9,869.1,452,862,458c-6.7,5.6-13.8,11.1-20.8,16.2c-7.5,5.5-14.9,10.8-22.7,15.8c-3.6,2.5-7.5,4.6-11.1,6.8
	c-3.8,2.2-7.7,4.6-11.6,6.6c-8.2,4.3-16.4,8.2-24.8,11.8c-8.2,3.5-16.3,6.8-24.6,10C740,528,733.3,530.1,726.3,532"/>
<g>
	<polygon id="Africa" fill="#44D32F" points="458.6,178.9 433.4,170.1 409.7,179 401.9,189 394.6,198.5 389.1,211.5 383.8,224.3 
		378.6,236.7 374.2,247.2 385.5,260.6 395.2,272 404.9,283.5 425.9,277.3 442.9,272.3 450.9,281.7 460,292.5 471.5,306 470.2,323.7 
		468.7,342.1 467.1,363.7 483.5,390.9 503.8,403.1 509.6,391.5 517.2,376.1 531.2,356.7 544.4,338.5 555.1,323.7 569.5,303.7 
		573.7,286.6 578.3,268.2 582.1,252.5 587.2,232 532.6,235.1 528.6,223.2 522.1,204.3 516.2,186.7 	"/>
	<polygon id="Europe" fill="#44D32F" points="393.2,146.2 385.5,175 415.1,175.8 423.5,153.5 443.5,152.7 447.7,155.9 455,160 
		472.6,168.5 449.9,147.1 465,152.9 470.8,157.4 486.1,161.9 513.3,179.9 547.8,170 520.7,149.5 514.7,122.9 492,111.5 479,66.8 
		448.9,80 427.5,99.5 447.1,101.3 460.3,92.5 477,89.4 476.7,99.4 461,114 442,117.3 429.3,124.5 402.7,136.2 	"/>
	<polygon id="Asia" fill="#44D32F" points="550.7,166.6 517.9,141.7 494.5,98 486.1,65 527.9,87.5 563.7,75.4 576.2,68.9 
		588.9,76.4 597.1,59.4 653.6,61.8 676,69.9 794.1,74.1 818.6,87 830,89.2 812.7,93.9 807.9,106.8 812.1,141.7 805.1,136.1 
		784.8,100.5 771.3,100.5 771.3,110.5 755.9,114.1 780.1,141.4 776.7,169.3 742.8,174 753.3,200.1 742.6,229.3 725,252.6 687.6,226 
		683,239.1 678.8,251.3 674.6,263 670.9,273.7 663.8,289.6 658,302.4 653.7,312.1 648.5,323.7 640.2,313.2 629.7,300 621.7,289.9 
		619,279.3 615.6,265.9 612.4,253.8 609.2,241.2 606.7,231.3 603.3,218.2 581.5,218.2 547.8,226 525.4,218.2 525.4,191.6 550,179.9 
			"/>
	<polygon id="Australia" fill="#44D32F" points="808,342.1 786.5,345.7 763.5,373.1 745.3,374.9 728.2,394.7 731.6,425.6 
		778.6,409.5 793.8,421.4 795.7,440.8 818.8,437.3 844.7,406.4 844.7,373.1 825.8,347.3 809,359.7 	"/>
	<polygon id="North_America" fill="#44D32F" points="171.5,239.3 162.2,231.1 165.4,223.3 170.9,210.2 194,214.6 206.3,202.2 
		214.6,193.8 231.3,177 240.8,167.5 257.5,150.7 296.5,130.2 280.7,116.1 269.1,105.8 253.2,91.7 228.5,119.5 211.3,112.2 
		234.9,95.4 214.6,89.9 203.9,86.9 194.8,84.4 178.5,79.9 168.6,77.3 152.1,72.7 137.2,68.6 96.5,76.3 85.2,84.6 70.7,95.2 
		55.9,106 126.2,106 117.1,122.2 109.9,134.9 104.5,144.3 96,159.3 100.5,177 105.2,195.6 108.9,210.5 111.6,221.1 115,234.2 
		119.1,250.9 182.3,270.2 190.3,257.5 	"/>
	<polygon id="South_America" fill="#44D32F" points="183.6,270.5 193.3,285.6 200.9,297.5 196.9,310.4 192,326.2 200.9,339.2 
		209.3,351.4 219.6,366.4 223.7,385.1 227.7,403.9 230.7,417.7 235.8,441.2 238.6,453.8 242.4,471.6 261.3,472.5 261.8,461.5 
		262.4,446.1 262.9,434.5 263.4,423 275.7,409 290.4,392.4 304.5,376.4 307.7,362.4 312,343.6 316.1,325.2 316.7,303.1 300.8,296.4 
		267.5,282.2 240,270.5 222.2,263 192.2,257.5 	"/>
	<polygon id="Tazmania" fill="#44D32F" points="799.9,446 812.1,445.8 799.8,461.3 	"/>
</g>
</svg>
