<?xml version="1.0" encoding="utf-8"?>
<!-- Generator: Adobe Illustrator 17.1.0, SVG Export Plug-In . SVG Version: 6.00 Build 0)  -->
<!DOCTYPE svg PUBLIC "-//W3C//DTD SVG 1.1//EN" "http://www.w3.org/Graphics/SVG/1.1/DTD/svg11.dtd">
<svg version="1.1"
	 id="svg1926" inkscape:output_extension="org.inkscape.output.svg.inkscape" sodipodi:docbase="C:\Documents and Settings\XP\Meus documentos\Minhas imagens" sodipodi:version="0.32" sodipodi:docname="World_Blank_Map_(Mercator_projection).svg" inkscape:version="0.46" xmlns:inkscape="http://www.inkscape.org/namespaces/inkscape" xmlns:sodipodi="http://sodipodi.sourceforge.net/DTD/sodipodi-0.dtd" xmlns:cc="http://creativecommons.org/ns#" xmlns:dc="http://purl.org/dc/elements/1.1/" xmlns:svg="http://www.w3.org/2000/svg" xmlns:rdf="http://www.w3.org/1999/02/22-rdf-syntax-ns#"
	 xmlns="http://www.w3.org/2000/svg" xmlns:xlink="http://www.w3.org/1999/xlink" x="0px" y="0px" viewBox="0 0 634.3 476.7"
	 enable-background="new 0 0 634.3 476.7" xml:space="preserve">
	 <defs><radialGradient cx="435.024" cy="208.944" r="50.976" gradientUnits="userSpaceOnUse" id="color-1"><stop offset="0.05" stop-color="#25ffac"></stop><stop offset="0.3" stop-color="#1ce681"></stop><stop offset="0.7" stop-color="#108048"></stop><stop offset="1" stop-color="#000000"></stop></radialGradient><radialGradient cx="435.024" cy="208.944" r="50.976" gradientUnits="userSpaceOnUse" id="color-2"><stop offset="0.05" stop-color="#25ffac"></stop><stop offset="0.3" stop-color="#1ce681"></stop><stop offset="0.7" stop-color="#108048"></stop><stop offset="1" stop-color="#000000"></stop></radialGradient><radialGradient cx="425.2536" cy="208.944" r="62.4456" gradientUnits="userSpaceOnUse" id="color-3"><stop offset="0" stop-color="#000000" stop-opacity="0"></stop><stop offset="0.33333" stop-color="#000000" stop-opacity="0.3"></stop><stop offset="0.66667" stop-color="#000000" stop-opacity="0.7"></stop><stop offset="1" stop-color="#000000"></stop></radialGradient><radialGradient cx="825.264" cy="351.936" r="20.304" gradientUnits="userSpaceOnUse" id="color-4"><stop offset="0.05" stop-color="#ff9a00"></stop><stop offset="0.3" stop-color="#e67300"></stop><stop offset="0.7" stop-color="#804000"></stop><stop offset="1" stop-color="#000000"></stop></radialGradient><radialGradient cx="825.264" cy="351.936" r="20.304" gradientUnits="userSpaceOnUse" id="color-5"><stop offset="0.05" stop-color="#ff9a00"></stop><stop offset="0.3" stop-color="#e67300"></stop><stop offset="0.7" stop-color="#804000"></stop><stop offset="1" stop-color="#000000"></stop></radialGradient><radialGradient cx="821.3724" cy="351.936" r="24.8724" gradientUnits="userSpaceOnUse" id="color-6"><stop offset="0" stop-color="#000000" stop-opacity="0"></stop><stop offset="0.33333" stop-color="#000000" stop-opacity="0.3"></stop><stop offset="0.66667" stop-color="#000000" stop-opacity="0.7"></stop><stop offset="1" stop-color="#000000"></stop></radialGradient><radialGradient cx="684.936" cy="465.984" r="36.072" gradientUnits="userSpaceOnUse" id="color-7"><stop offset="0.05" stop-color="#ff9a00"></stop><stop offset="0.3" stop-color="#e67300"></stop><stop offset="0.7" stop-color="#804000"></stop><stop offset="1" stop-color="#000000"></stop></radialGradient><radialGradient cx="684.936" cy="465.984" r="36.072" gradientUnits="userSpaceOnUse" id="color-8"><stop offset="0.05" stop-color="#ff9a00"></stop><stop offset="0.3" stop-color="#e67300"></stop><stop offset="0.7" stop-color="#804000"></stop><stop offset="1" stop-color="#000000"></stop></radialGradient><radialGradient cx="678.0222" cy="465.984" r="44.1882" gradientUnits="userSpaceOnUse" id="color-9"><stop offset="0" stop-color="#000000" stop-opacity="0"></stop><stop offset="0.33333" stop-color="#000000" stop-opacity="0.3"></stop><stop offset="0.66667" stop-color="#000000" stop-opacity="0.7"></stop><stop offset="1" stop-color="#000000"></stop></radialGradient><radialGradient cx="1207.44" cy="260.064" r="37.584" gradientUnits="userSpaceOnUse" id="color-10"><stop offset="0.05" stop-color="#d400d4"></stop><stop offset="0.3" stop-color="#9f009f"></stop><stop offset="0.7" stop-color="#590059"></stop><stop offset="1" stop-color="#000000"></stop></radialGradient><radialGradient cx="1207.44" cy="260.064" r="37.584" gradientUnits="userSpaceOnUse" id="color-11"><stop offset="0.05" stop-color="#d400d4"></stop><stop offset="0.3" stop-color="#9f009f"></stop><stop offset="0.7" stop-color="#590059"></stop><stop offset="1" stop-color="#000000"></stop></radialGradient><radialGradient cx="1200.2364" cy="260.064" r="46.0404" gradientUnits="userSpaceOnUse" id="color-12"><stop offset="0" stop-color="#000000" stop-opacity="0"></stop><stop offset="0.33333" stop-color="#000000" stop-opacity="0.3"></stop><stop offset="0.66667" stop-color="#000000" stop-opacity="0.7"></stop><stop offset="1" stop-color="#000000"></stop></radialGradient><radialGradient cx="163.08" cy="180" r="20.952" gradientUnits="userSpaceOnUse" id="color-13"><stop offset="0.05" stop-color="#ff6161"></stop><stop offset="0.3" stop-color="#e64949"></stop><stop offset="0.7" stop-color="#802929"></stop><stop offset="1" stop-color="#000000"></stop></radialGradient><radialGradient cx="163.08" cy="180" r="20.952" gradientUnits="userSpaceOnUse" id="color-14"><stop offset="0.05" stop-color="#ff6161"></stop><stop offset="0.3" stop-color="#e64949"></stop><stop offset="0.7" stop-color="#802929"></stop><stop offset="1" stop-color="#000000"></stop></radialGradient><radialGradient cx="159.0642" cy="180" r="25.6662" gradientUnits="userSpaceOnUse" id="color-15"><stop offset="0" stop-color="#000000" stop-opacity="0"></stop><stop offset="0.33333" stop-color="#000000" stop-opacity="0.3"></stop><stop offset="0.66667" stop-color="#000000" stop-opacity="0.7"></stop><stop offset="1" stop-color="#000000"></stop></radialGradient><radialGradient cx="203.544" cy="211.968" r="4.536" gradientUnits="userSpaceOnUse" id="color-16"><stop offset="0.05" stop-color="#ff6161"></stop><stop offset="0.3" stop-color="#e64949"></stop><stop offset="0.7" stop-color="#802929"></stop><stop offset="1" stop-color="#000000"></stop></radialGradient><radialGradient cx="203.544" cy="211.968" r="4.536" gradientUnits="userSpaceOnUse" id="color-17"><stop offset="0.05" stop-color="#ff6161"></stop><stop offset="0.3" stop-color="#e64949"></stop><stop offset="0.7" stop-color="#802929"></stop><stop offset="1" stop-color="#000000"></stop></radialGradient><radialGradient cx="202.6746" cy="211.968" r="5.5566" gradientUnits="userSpaceOnUse" id="color-18"><stop offset="0" stop-color="#000000" stop-opacity="0"></stop><stop offset="0.33333" stop-color="#000000" stop-opacity="0.3"></stop><stop offset="0.66667" stop-color="#000000" stop-opacity="0.7"></stop><stop offset="1" stop-color="#000000"></stop></radialGradient><radialGradient cx="308.448" cy="366.048" r="37.584" gradientUnits="userSpaceOnUse" id="color-19"><stop offset="0.05" stop-color="#5bc7ff"></stop><stop offset="0.3" stop-color="#4495e6"></stop><stop offset="0.7" stop-color="#265380"></stop><stop offset="1" stop-color="#000000"></stop></radialGradient><radialGradient cx="308.448" cy="366.048" r="37.584" gradientUnits="userSpaceOnUse" id="color-20"><stop offset="0.05" stop-color="#5bc7ff"></stop><stop offset="0.3" stop-color="#4495e6"></stop><stop offset="0.7" stop-color="#265380"></stop><stop offset="1" stop-color="#000000"></stop></radialGradient><radialGradient cx="301.2444" cy="366.048" r="46.0404" gradientUnits="userSpaceOnUse" id="color-21"><stop offset="0" stop-color="#000000" stop-opacity="0"></stop><stop offset="0.33333" stop-color="#000000" stop-opacity="0.3"></stop><stop offset="0.66667" stop-color="#000000" stop-opacity="0.7"></stop><stop offset="1" stop-color="#000000"></stop></radialGradient><radialGradient cx="429.984" cy="1179.936" r="209.952" gradientUnits="userSpaceOnUse" id="color-22"><stop offset="0.05" stop-color="#00f500"></stop><stop offset="0.3" stop-color="#00b800"></stop><stop offset="0.7" stop-color="#006600"></stop><stop offset="1" stop-color="#000000"></stop></radialGradient><radialGradient cx="429.984" cy="1179.936" r="209.952" gradientUnits="userSpaceOnUse" id="color-23"><stop offset="0.05" stop-color="#00f500"></stop><stop offset="0.3" stop-color="#00b800"></stop><stop offset="0.7" stop-color="#006600"></stop><stop offset="1" stop-color="#000000"></stop></radialGradient><radialGradient cx="389.7432" cy="1179.936" r="257.1912" gradientUnits="userSpaceOnUse" id="color-24"><stop offset="0" stop-color="#000000" stop-opacity="0"></stop><stop offset="0.33333" stop-color="#000000" stop-opacity="0.3"></stop><stop offset="0.66667" stop-color="#000000" stop-opacity="0.7"></stop><stop offset="1" stop-color="#000000"></stop></radialGradient><radialGradient cx="1237.536" cy="325.008" r="37.584" gradientUnits="userSpaceOnUse" id="color-25"><stop offset="0.05" stop-color="#d400d4"></stop><stop offset="0.3" stop-color="#9f009f"></stop><stop offset="0.7" stop-color="#590059"></stop><stop offset="1" stop-color="#000000"></stop></radialGradient><radialGradient cx="1237.536" cy="325.008" r="37.584" gradientUnits="userSpaceOnUse" id="color-26"><stop offset="0.05" stop-color="#d400d4"></stop><stop offset="0.3" stop-color="#9f009f"></stop><stop offset="0.7" stop-color="#590059"></stop><stop offset="1" stop-color="#000000"></stop></radialGradient><radialGradient cx="1230.3324" cy="325.008" r="46.0404" gradientUnits="userSpaceOnUse" id="color-27"><stop offset="0" stop-color="#000000" stop-opacity="0"></stop><stop offset="0.33333" stop-color="#000000" stop-opacity="0.3"></stop><stop offset="0.66667" stop-color="#000000" stop-opacity="0.7"></stop><stop offset="1" stop-color="#000000"></stop></radialGradient><radialGradient cx="356.688" cy="316.8" r="12.96" gradientUnits="userSpaceOnUse" id="color-28"><stop offset="0.05" stop-color="#5bc7ff"></stop><stop offset="0.3" stop-color="#4495e6"></stop><stop offset="0.7" stop-color="#265380"></stop><stop offset="1" stop-color="#000000"></stop></radialGradient><radialGradient cx="356.688" cy="316.8" r="12.96" gradientUnits="userSpaceOnUse" id="color-29"><stop offset="0.05" stop-color="#5bc7ff"></stop><stop offset="0.3" stop-color="#4495e6"></stop><stop offset="0.7" stop-color="#265380"></stop><stop offset="1" stop-color="#000000"></stop></radialGradient><radialGradient cx="354.204" cy="316.8" r="15.876" gradientUnits="userSpaceOnUse" id="color-30"><stop offset="0" stop-color="#000000" stop-opacity="0"></stop><stop offset="0.33333" stop-color="#000000" stop-opacity="0.3"></stop><stop offset="0.66667" stop-color="#000000" stop-opacity="0.7"></stop><stop offset="1" stop-color="#000000"></stop></radialGradient><radialGradient cx="561.6" cy="260.064" r="16.416" gradientUnits="userSpaceOnUse" id="color-31"><stop offset="0.05" stop-color="#1fff1f"></stop><stop offset="0.3" stop-color="#17e617"></stop><stop offset="0.7" stop-color="#0d800d"></stop><stop offset="1" stop-color="#000000"></stop></radialGradient><radialGradient cx="561.6" cy="260.064" r="16.416" gradientUnits="userSpaceOnUse" id="color-32"><stop offset="0.05" stop-color="#1fff1f"></stop><stop offset="0.3" stop-color="#17e617"></stop><stop offset="0.7" stop-color="#0d800d"></stop><stop offset="1" stop-color="#000000"></stop></radialGradient><radialGradient cx="558.4536" cy="260.064" r="20.1096" gradientUnits="userSpaceOnUse" id="color-33"><stop offset="0" stop-color="#000000" stop-opacity="0"></stop><stop offset="0.33333" stop-color="#000000" stop-opacity="0.3"></stop><stop offset="0.66667" stop-color="#000000" stop-opacity="0.7"></stop><stop offset="1" stop-color="#000000"></stop></radialGradient><radialGradient cx="260.928" cy="418.032" r="9.072" gradientUnits="userSpaceOnUse" id="color-34"><stop offset="0.05" stop-color="#5bc7ff"></stop><stop offset="0.3" stop-color="#4495e6"></stop><stop offset="0.7" stop-color="#265380"></stop><stop offset="1" stop-color="#000000"></stop></radialGradient><radialGradient cx="260.928" cy="418.032" r="9.072" gradientUnits="userSpaceOnUse" id="color-35"><stop offset="0.05" stop-color="#5bc7ff"></stop><stop offset="0.3" stop-color="#4495e6"></stop><stop offset="0.7" stop-color="#265380"></stop><stop offset="1" stop-color="#000000"></stop></radialGradient><radialGradient cx="259.1892" cy="418.032" r="11.1132" gradientUnits="userSpaceOnUse" id="color-36"><stop offset="0" stop-color="#000000" stop-opacity="0"></stop><stop offset="0.33333" stop-color="#000000" stop-opacity="0.3"></stop><stop offset="0.66667" stop-color="#000000" stop-opacity="0.7"></stop><stop offset="1" stop-color="#000000"></stop></radialGradient><radialGradient cx="234" cy="373.968" r="6.048" gradientUnits="userSpaceOnUse" id="color-37"><stop offset="0.05" stop-color="#5bc7ff"></stop><stop offset="0.3" stop-color="#4495e6"></stop><stop offset="0.7" stop-color="#265380"></stop><stop offset="1" stop-color="#000000"></stop></radialGradient><radialGradient cx="234" cy="373.968" r="6.048" gradientUnits="userSpaceOnUse" id="color-38"><stop offset="0.05" stop-color="#5bc7ff"></stop><stop offset="0.3" stop-color="#4495e6"></stop><stop offset="0.7" stop-color="#265380"></stop><stop offset="1" stop-color="#000000"></stop></radialGradient><radialGradient cx="232.8408" cy="373.968" r="7.4088" gradientUnits="userSpaceOnUse" id="color-39"><stop offset="0" stop-color="#000000" stop-opacity="0"></stop><stop offset="0.33333" stop-color="#000000" stop-opacity="0.3"></stop><stop offset="0.66667" stop-color="#000000" stop-opacity="0.7"></stop><stop offset="1" stop-color="#000000"></stop></radialGradient><radialGradient cx="684.504" cy="205.056" r="10.584" gradientUnits="userSpaceOnUse" id="color-40"><stop offset="0.05" stop-color="#1fff1f"></stop><stop offset="0.3" stop-color="#17e617"></stop><stop offset="0.7" stop-color="#0d800d"></stop><stop offset="1" stop-color="#000000"></stop></radialGradient><radialGradient cx="684.504" cy="205.056" r="10.584" gradientUnits="userSpaceOnUse" id="color-41"><stop offset="0.05" stop-color="#1fff1f"></stop><stop offset="0.3" stop-color="#17e617"></stop><stop offset="0.7" stop-color="#0d800d"></stop><stop offset="1" stop-color="#000000"></stop></radialGradient><radialGradient cx="682.4754" cy="205.056" r="12.9654" gradientUnits="userSpaceOnUse" id="color-42"><stop offset="0" stop-color="#000000" stop-opacity="0"></stop><stop offset="0.33333" stop-color="#000000" stop-opacity="0.3"></stop><stop offset="0.66667" stop-color="#000000" stop-opacity="0.7"></stop><stop offset="1" stop-color="#000000"></stop></radialGradient><radialGradient cx="858.96" cy="448.992" r="114.048" gradientUnits="userSpaceOnUse" id="color-43"><stop offset="0.05" stop-color="#ff9a00"></stop><stop offset="0.3" stop-color="#e67300"></stop><stop offset="0.7" stop-color="#804000"></stop><stop offset="1" stop-color="#000000"></stop></radialGradient><radialGradient cx="858.96" cy="448.992" r="114.048" gradientUnits="userSpaceOnUse" id="color-44"><stop offset="0.05" stop-color="#ff9a00"></stop><stop offset="0.3" stop-color="#e67300"></stop><stop offset="0.7" stop-color="#804000"></stop><stop offset="1" stop-color="#000000"></stop></radialGradient><radialGradient cx="837.1008" cy="448.992" r="139.7088" gradientUnits="userSpaceOnUse" id="color-45"><stop offset="0" stop-color="#000000" stop-opacity="0"></stop><stop offset="0.33333" stop-color="#000000" stop-opacity="0.3"></stop><stop offset="0.66667" stop-color="#000000" stop-opacity="0.7"></stop><stop offset="1" stop-color="#000000"></stop></radialGradient><radialGradient cx="584.064" cy="172.944" r="47.952" gradientUnits="userSpaceOnUse" id="color-46"><stop offset="0.05" stop-color="#2020b0"></stop><stop offset="0.3" stop-color="#181884"></stop><stop offset="0.7" stop-color="#0e0e4a"></stop><stop offset="1" stop-color="#000000"></stop></radialGradient><radialGradient cx="584.064" cy="172.944" r="47.952" gradientUnits="userSpaceOnUse" id="color-47"><stop offset="0.05" stop-color="#2020b0"></stop><stop offset="0.3" stop-color="#181884"></stop><stop offset="0.7" stop-color="#0e0e4a"></stop><stop offset="1" stop-color="#000000"></stop></radialGradient><radialGradient cx="574.8732" cy="172.944" r="58.7412" gradientUnits="userSpaceOnUse" id="color-48"><stop offset="0" stop-color="#000000" stop-opacity="0"></stop><stop offset="0.33333" stop-color="#000000" stop-opacity="0"></stop><stop offset="0.66667" stop-color="#000000" stop-opacity="0"></stop><stop offset="1" stop-color="#000000" stop-opacity="0"></stop></radialGradient></defs><g transform="translate(-3334.37838,-852.54054) scale(6.75676,6.75676)"><g id="background" fill="none" stroke="none" stroke-width="1" stroke-linecap="butt" stroke-linejoin="miter" stroke-miterlimit="10" stroke-dasharray="" stroke-dashoffset="0" font-family="sans-serif" font-weight="normal" font-size="12" text-anchor="start" mix-blend-mode="normal"></g><g id="tracks" fill="none" stroke-opacity="0.3" stroke="#ffffff" stroke-width="0.5" stroke-linecap="butt" stroke-linejoin="miter" stroke-miterlimit="10" stroke-dasharray="" stroke-dashoffset="0" font-family="sans-serif" font-weight="normal" font-size="12" text-anchor="start" mix-blend-mode="normal"><path d="M832.032,351.936c-69.11174,-69.61567 -147.11402,-129.79992 -231.984,-178.992"></path></g><g id="movers" fill="none" stroke="none" stroke-width="1" stroke-linecap="butt" stroke-linejoin="miter" stroke-miterlimit="10" stroke-dasharray="" stroke-dashoffset="0" font-family="sans-serif" font-weight="normal" font-size="12" text-anchor="start" mix-blend-mode="normal"><polygon points="607.55756,176.17029 606.54669,177.89602 601.3695,174.86343 602.38036,173.1377" data-paper-data="null" fill="#ff0000"></polygon><polygon points="607.47583,176.12213 606.46511,177.84795 601.28766,174.81579 602.29837,173.08997" data-paper-data="null" fill="#ff0000"></polygon><polygon points="607.39511,176.07457 606.38454,177.80047 601.20683,174.76875 602.2174,173.04285" data-paper-data="null" fill="#ff0000"></polygon><polygon points="607.31307,176.02624 606.30264,177.75223 601.12468,174.72095 602.1351,172.99496" data-paper-data="null" fill="#ff0000"></polygon><polygon points="607.31307,176.02624 606.30264,177.75223 601.12468,174.72095 602.1351,172.99496" fill="#3131ff"></polygon></g><g id="bodies" fill="none" stroke="none" stroke-width="none" stroke-linecap="butt" stroke-linejoin="miter" stroke-miterlimit="none" stroke-dasharray="" stroke-dashoffset="0" font-family="sans-serif" font-weight="normal" font-size="none" text-anchor="start" mix-blend-mode="normal"><g stroke-miterlimit="10" font-size="12"><path d="M418.032,208.944c0,-18.76884 15.21516,-33.984 33.984,-33.984c18.76884,0 33.984,15.21516 33.984,33.984c0,18.76884 -15.21516,33.984 -33.984,33.984c-18.76884,0 -33.984,-15.21516 -33.984,-33.984z" data-paper-data="null" fill="url(#color-1)" stroke="#24b3b3" stroke-width="2"></path><g stroke-width="1"><path d="M418.032,208.944c0,-18.76884 15.21516,-33.984 33.984,-33.984c18.76884,0 33.984,15.21516 33.984,33.984c0,18.76884 -15.21516,33.984 -33.984,33.984c-18.76884,0 -33.984,-15.21516 -33.984,-33.984z" fill="url(#color-2)"></path><path d="M416.3328,208.944c0,-19.70729 15.97591,-35.6832 35.6832,-35.6832c19.70729,0 35.6832,15.97591 35.6832,35.6832c0,19.70729 -15.97591,35.6832 -35.6832,35.6832c-19.70729,0 -35.6832,-15.97591 -35.6832,-35.6832z" data-paper-data="null" fill="url(#color-3)"></path></g></g><g stroke-miterlimit="10" font-size="12"><path d="M818.496,351.936c0,-7.47573 6.06027,-13.536 13.536,-13.536c7.47573,0 13.536,6.06027 13.536,13.536c0,7.47573 -6.06027,13.536 -13.536,13.536c-7.47573,0 -13.536,-6.06027 -13.536,-13.536z" data-paper-data="null" fill="url(#color-4)" stroke="#24b3b3" stroke-width="2"></path><g stroke-width="1"><path d="M818.496,351.936c0,-7.47573 6.06027,-13.536 13.536,-13.536c7.47573,0 13.536,6.06027 13.536,13.536c0,7.47573 -6.06027,13.536 -13.536,13.536c-7.47573,0 -13.536,-6.06027 -13.536,-13.536z" fill="url(#color-5)"></path><path d="M817.8192,351.936c0,-7.84951 6.36329,-14.2128 14.2128,-14.2128c7.84951,0 14.2128,6.36329 14.2128,14.2128c0,7.84951 -6.36329,14.2128 -14.2128,14.2128c-7.84951,0 -14.2128,-6.36329 -14.2128,-14.2128z" data-paper-data="null" fill="url(#color-6)"></path></g></g><g stroke-miterlimit="10" font-size="12"><path d="M672.912,465.984c0,-13.28134 10.76666,-24.048 24.048,-24.048c13.28134,0 24.048,10.76666 24.048,24.048c0,13.28134 -10.76666,24.048 -24.048,24.048c-13.28134,0 -24.048,-10.76666 -24.048,-24.048z" data-paper-data="null" fill="url(#color-7)" stroke="#000000" stroke-width="2"></path><g stroke-width="1"><path d="M672.912,465.984c0,-13.28134 10.76666,-24.048 24.048,-24.048c13.28134,0 24.048,10.76666 24.048,24.048c0,13.28134 -10.76666,24.048 -24.048,24.048c-13.28134,0 -24.048,-10.76666 -24.048,-24.048z" fill="url(#color-8)"></path><path d="M671.7096,465.984c0,-13.94541 11.30499,-25.2504 25.2504,-25.2504c13.94541,0 25.2504,11.30499 25.2504,25.2504c0,13.94541 -11.30499,25.2504 -25.2504,25.2504c-13.94541,0 -25.2504,-11.30499 -25.2504,-25.2504z" data-paper-data="null" fill="url(#color-9)"></path></g></g><g stroke-miterlimit="10" font-size="12"><path d="M1194.912,260.064c0,-13.83805 11.21795,-25.056 25.056,-25.056c13.83805,0 25.056,11.21795 25.056,25.056c0,13.83805 -11.21795,25.056 -25.056,25.056c-13.83805,0 -25.056,-11.21795 -25.056,-25.056z" data-paper-data="null" fill="url(#color-10)" stroke="#000000" stroke-width="2"></path><g stroke-width="1"><path d="M1194.912,260.064c0,-13.83805 11.21795,-25.056 25.056,-25.056c13.83805,0 25.056,11.21795 25.056,25.056c0,13.83805 -11.21795,25.056 -25.056,25.056c-13.83805,0 -25.056,-11.21795 -25.056,-25.056z" fill="url(#color-11)"></path><path d="M1193.6592,260.064c0,-14.52995 11.77885,-26.3088 26.3088,-26.3088c14.52995,0 26.3088,11.77885 26.3088,26.3088c0,14.52995 -11.77885,26.3088 -26.3088,26.3088c-14.52995,0 -26.3088,-11.77885 -26.3088,-26.3088z" data-paper-data="null" fill="url(#color-12)"></path></g></g><g stroke-miterlimit="10" font-size="12"><path d="M156.096,180c0,-7.71431 6.25369,-13.968 13.968,-13.968c7.71431,0 13.968,6.25369 13.968,13.968c0,7.71431 -6.25369,13.968 -13.968,13.968c-7.71431,0 -13.968,-6.25369 -13.968,-13.968z" data-paper-data="null" fill="url(#color-13)" stroke="#000000" stroke-width="2"></path><g stroke-width="1"><path d="M156.096,180c0,-7.71431 6.25369,-13.968 13.968,-13.968c7.71431,0 13.968,6.25369 13.968,13.968c0,7.71431 -6.25369,13.968 -13.968,13.968c-7.71431,0 -13.968,-6.25369 -13.968,-13.968z" fill="url(#color-14)"></path><path d="M155.3976,180c0,-8.10003 6.56637,-14.6664 14.6664,-14.6664c8.10003,0 14.6664,6.56637 14.6664,14.6664c0,8.10003 -6.56637,14.6664 -14.6664,14.6664c-8.10003,0 -14.6664,-6.56637 -14.6664,-14.6664z" data-paper-data="null" fill="url(#color-15)"></path></g></g><g stroke-miterlimit="10" font-size="12"><path d="M202.032,211.968c0,-1.67011 1.35389,-3.024 3.024,-3.024c1.67011,0 3.024,1.35389 3.024,3.024c0,1.67011 -1.35389,3.024 -3.024,3.024c-1.67011,0 -3.024,-1.35389 -3.024,-3.024z" data-paper-data="null" fill="url(#color-16)" stroke="#000000" stroke-width="2"></path><g stroke-width="1"><path d="M202.032,211.968c0,-1.67011 1.35389,-3.024 3.024,-3.024c1.67011,0 3.024,1.35389 3.024,3.024c0,1.67011 -1.35389,3.024 -3.024,3.024c-1.67011,0 -3.024,-1.35389 -3.024,-3.024z" fill="url(#color-17)"></path><path d="M201.8808,211.968c0,-1.75361 1.42159,-3.1752 3.1752,-3.1752c1.75361,0 3.1752,1.42159 3.1752,3.1752c0,1.75361 -1.42159,3.1752 -3.1752,3.1752c-1.75361,0 -3.1752,-1.42159 -3.1752,-3.1752z" data-paper-data="null" fill="url(#color-18)"></path></g></g><g stroke-miterlimit="10" font-size="12"><path d="M295.92,366.048c0,-13.83805 11.21795,-25.056 25.056,-25.056c13.83805,0 25.056,11.21795 25.056,25.056c0,13.83805 -11.21795,25.056 -25.056,25.056c-13.83805,0 -25.056,-11.21795 -25.056,-25.056z" data-paper-data="null" fill="url(#color-19)" stroke="#000000" stroke-width="2"></path><g stroke-width="1"><path d="M295.92,366.048c0,-13.83805 11.21795,-25.056 25.056,-25.056c13.83805,0 25.056,11.21795 25.056,25.056c0,13.83805 -11.21795,25.056 -25.056,25.056c-13.83805,0 -25.056,-11.21795 -25.056,-25.056z" fill="url(#color-20)"></path><path d="M294.6672,366.048c0,-14.52995 11.77885,-26.3088 26.3088,-26.3088c14.52995,0 26.3088,11.77885 26.3088,26.3088c0,14.52995 -11.77885,26.3088 -26.3088,26.3088c-14.52995,0 -26.3088,-11.77885 -26.3088,-26.3088z" data-paper-data="null" fill="url(#color-21)"></path></g></g><g stroke-miterlimit="10" font-size="12"><path d="M360,1179.936c0,-77.30219 62.66581,-139.968 139.968,-139.968c77.30219,0 139.968,62.66581 139.968,139.968c0,77.30219 -62.66581,139.968 -139.968,139.968c-77.30219,0 -139.968,-62.66581 -139.968,-139.968z" data-paper-data="null" fill="url(#color-22)" stroke="#000000" stroke-width="2"></path><g stroke-width="1"><path d="M360,1179.936c0,-77.30219 62.66581,-139.968 139.968,-139.968c77.30219,0 139.968,62.66581 139.968,139.968c0,77.30219 -62.66581,139.968 -139.968,139.968c-77.30219,0 -139.968,-62.66581 -139.968,-139.968z" fill="url(#color-23)"></path><path d="M353.0016,1179.936c0,-81.1673 65.7991,-146.9664 146.9664,-146.9664c81.1673,0 146.9664,65.7991 146.9664,146.9664c0,81.1673 -65.7991,146.9664 -146.9664,146.9664c-81.1673,0 -146.9664,-65.7991 -146.9664,-146.9664z" data-paper-data="null" fill="url(#color-24)"></path></g></g><g stroke-miterlimit="10" font-size="12"><path d="M1225.008,325.008c0,-13.83805 11.21795,-25.056 25.056,-25.056c13.83805,0 25.056,11.21795 25.056,25.056c0,13.83805 -11.21795,25.056 -25.056,25.056c-13.83805,0 -25.056,-11.21795 -25.056,-25.056z" data-paper-data="null" fill="url(#color-25)" stroke="#000000" stroke-width="2"></path><g stroke-width="1"><path d="M1225.008,325.008c0,-13.83805 11.21795,-25.056 25.056,-25.056c13.83805,0 25.056,11.21795 25.056,25.056c0,13.83805 -11.21795,25.056 -25.056,25.056c-13.83805,0 -25.056,-11.21795 -25.056,-25.056z" fill="url(#color-26)"></path><path d="M1223.7552,325.008c0,-14.52995 11.77885,-26.3088 26.3088,-26.3088c14.52995,0 26.3088,11.77885 26.3088,26.3088c0,14.52995 -11.77885,26.3088 -26.3088,26.3088c-14.52995,0 -26.3088,-11.77885 -26.3088,-26.3088z" data-paper-data="null" fill="url(#color-27)"></path></g></g><g stroke-miterlimit="10" font-size="12"><path d="M352.368,316.8c0,-4.77174 3.86826,-8.64 8.64,-8.64c4.77174,0 8.64,3.86826 8.64,8.64c0,4.77174 -3.86826,8.64 -8.64,8.64c-4.77174,0 -8.64,-3.86826 -8.64,-8.64z" data-paper-data="null" fill="url(#color-28)" stroke="#000000" stroke-width="2"></path><g stroke-width="1"><path d="M352.368,316.8c0,-4.77174 3.86826,-8.64 8.64,-8.64c4.77174,0 8.64,3.86826 8.64,8.64c0,4.77174 -3.86826,8.64 -8.64,8.64c-4.77174,0 -8.64,-3.86826 -8.64,-8.64z" fill="url(#color-29)"></path><path d="M351.936,316.8c0,-5.01033 4.06167,-9.072 9.072,-9.072c5.01033,0 9.072,4.06167 9.072,9.072c0,5.01033 -4.06167,9.072 -9.072,9.072c-5.01033,0 -9.072,-4.06167 -9.072,-9.072z" data-paper-data="null" fill="url(#color-30)"></path></g></g><g stroke-miterlimit="10" font-size="12"><path d="M556.128,260.064c0,-6.0442 4.8998,-10.944 10.944,-10.944c6.0442,0 10.944,4.8998 10.944,10.944c0,6.0442 -4.8998,10.944 -10.944,10.944c-6.0442,0 -10.944,-4.8998 -10.944,-10.944z" data-paper-data="null" fill="url(#color-31)" stroke="#000000" stroke-width="2"></path><g stroke-width="1"><path d="M556.128,260.064c0,-6.0442 4.8998,-10.944 10.944,-10.944c6.0442,0 10.944,4.8998 10.944,10.944c0,6.0442 -4.8998,10.944 -10.944,10.944c-6.0442,0 -10.944,-4.8998 -10.944,-10.944z" fill="url(#color-32)"></path><path d="M555.5808,260.064c0,-6.34641 5.14479,-11.4912 11.4912,-11.4912c6.34641,0 11.4912,5.14479 11.4912,11.4912c0,6.34641 -5.14479,11.4912 -11.4912,11.4912c-6.34641,0 -11.4912,-5.14479 -11.4912,-11.4912z" data-paper-data="null" fill="url(#color-33)"></path></g></g><g stroke-miterlimit="10" font-size="12"><path d="M257.904,418.032c0,-3.34022 2.70778,-6.048 6.048,-6.048c3.34022,0 6.048,2.70778 6.048,6.048c0,3.34022 -2.70778,6.048 -6.048,6.048c-3.34022,0 -6.048,-2.70778 -6.048,-6.048z" data-paper-data="null" fill="url(#color-34)" stroke="#000000" stroke-width="2"></path><g stroke-width="1"><path d="M257.904,418.032c0,-3.34022 2.70778,-6.048 6.048,-6.048c3.34022,0 6.048,2.70778 6.048,6.048c0,3.34022 -2.70778,6.048 -6.048,6.048c-3.34022,0 -6.048,-2.70778 -6.048,-6.048z" fill="url(#color-35)"></path><path d="M257.6016,418.032c0,-3.50723 2.84317,-6.3504 6.3504,-6.3504c3.50723,0 6.3504,2.84317 6.3504,6.3504c0,3.50723 -2.84317,6.3504 -6.3504,6.3504c-3.50723,0 -6.3504,-2.84317 -6.3504,-6.3504z" data-paper-data="null" fill="url(#color-36)"></path></g></g><g stroke-miterlimit="10" font-size="12"><path d="M231.984,373.968c0,-2.22681 1.80519,-4.032 4.032,-4.032c2.22681,0 4.032,1.80519 4.032,4.032c0,2.22681 -1.80519,4.032 -4.032,4.032c-2.22681,0 -4.032,-1.80519 -4.032,-4.032z" data-paper-data="null" fill="url(#color-37)" stroke="#000000" stroke-width="2"></path><g stroke-width="1"><path d="M231.984,373.968c0,-2.22681 1.80519,-4.032 4.032,-4.032c2.22681,0 4.032,1.80519 4.032,4.032c0,2.22681 -1.80519,4.032 -4.032,4.032c-2.22681,0 -4.032,-1.80519 -4.032,-4.032z" fill="url(#color-38)"></path><path d="M231.7824,373.968c0,-2.33815 1.89545,-4.2336 4.2336,-4.2336c2.33815,0 4.2336,1.89545 4.2336,4.2336c0,2.33815 -1.89545,4.2336 -4.2336,4.2336c-2.33815,0 -4.2336,-1.89545 -4.2336,-4.2336z" data-paper-data="null" fill="url(#color-39)"></path></g></g><g stroke-miterlimit="10" font-size="12"><path d="M680.976,205.056c0,-3.89692 3.15908,-7.056 7.056,-7.056c3.89692,0 7.056,3.15908 7.056,7.056c0,3.89692 -3.15908,7.056 -7.056,7.056c-3.89692,0 -7.056,-3.15908 -7.056,-7.056z" data-paper-data="null" fill="url(#color-40)" stroke="#000000" stroke-width="2"></path><g stroke-width="1"><path d="M680.976,205.056c0,-3.89692 3.15908,-7.056 7.056,-7.056c3.89692,0 7.056,3.15908 7.056,7.056c0,3.89692 -3.15908,7.056 -7.056,7.056c-3.89692,0 -7.056,-3.15908 -7.056,-7.056z" fill="url(#color-41)"></path><path d="M680.6232,205.056c0,-4.09177 3.31703,-7.4088 7.4088,-7.4088c4.09177,0 7.4088,3.31703 7.4088,7.4088c0,4.09177 -3.31703,7.4088 -7.4088,7.4088c-4.09177,0 -7.4088,-3.31703 -7.4088,-7.4088z" data-paper-data="null" fill="url(#color-42)"></path></g></g><g stroke-miterlimit="10" font-size="12"><path d="M820.944,448.992c0,-41.99131 34.04069,-76.032 76.032,-76.032c41.99131,0 76.032,34.04069 76.032,76.032c0,41.99131 -34.04069,76.032 -76.032,76.032c-41.99131,0 -76.032,-34.04069 -76.032,-76.032z" data-paper-data="null" fill="url(#color-43)" stroke="#000000" stroke-width="2"></path><g stroke-width="1"><path d="M820.944,448.992c0,-41.99131 34.04069,-76.032 76.032,-76.032c41.99131,0 76.032,34.04069 76.032,76.032c0,41.99131 -34.04069,76.032 -76.032,76.032c-41.99131,0 -76.032,-34.04069 -76.032,-76.032z" fill="url(#color-44)"></path><path d="M817.1424,448.992c0,-44.09088 35.74272,-79.8336 79.8336,-79.8336c44.09088,0 79.8336,35.74272 79.8336,79.8336c0,44.09088 -35.74272,79.8336 -79.8336,79.8336c-44.09088,0 -79.8336,-35.74272 -79.8336,-79.8336z" data-paper-data="null" fill="url(#color-45)"></path></g></g><g><path d="M568.08,172.944c0,-17.65544 14.31256,-31.968 31.968,-31.968c17.65544,0 31.968,14.31256 31.968,31.968c0,17.65544 -14.31256,31.968 -31.968,31.968c-17.65544,0 -31.968,-14.31256 -31.968,-31.968z" data-paper-data="null" fill="url(#color-46)" stroke="#24b3b3" stroke-width="2" stroke-miterlimit="10" font-size="12"></path><g stroke-width="1"><path d="M568.08,172.944c0,-17.65544 14.31256,-31.968 31.968,-31.968c17.65544,0 31.968,14.31256 31.968,31.968c0,17.65544 -14.31256,31.968 -31.968,31.968c-17.65544,0 -31.968,-14.31256 -31.968,-31.968z" fill="url(#color-47)" stroke-miterlimit="10" font-size="12"></path><g transform="translate(600.04363,172.74266)" id="Layer_1" stroke-miterlimit="4" font-size="16"><polygon points="27.52173,-16.11226 26.90178,-16.82277 26.13306,-17.54616 25.537,-17.80356 25.24302,-17.35352 24.81213,-16.88527 24.88815,-15.69014 24.92734,-14.35998 24.98495,-12.88686 25.12786,-11.20418 25.17659,-9.47145 25.11024,-7.70314 24.92934,-5.90513 24.64509,-4.03844 25.58224,-2.41896 26.46514,-0.84394 27.25552,0.75373 27.90226,2.29077 28.49455,3.54293 29.44557,2.9216 30.23861,2.31379 30.87554,1.71857 31.30452,1.65102 31.43762,3.11693 31.44481,4.56384 31.33253,5.96802 31.10004,7.35893 30.66367,9.02396 30.08971,10.78357 29.4211,12.49229 28.65768,14.15639 27.79308,15.78822 26.8225,17.38821 25.96672,18.64624 25.0518,19.85851 24.09106,21.01366 23.28452,21.90398 22.61962,22.58995 22.17276,23.02872 23.32338,21.86259 24.38646,20.67011 25.38293,19.43347 26.22899,18.27548 27.01884,17.08611 27.74157,15.88579 28.42338,14.63094 29.03874,13.36805 29.60897,12.05247 30.11711,10.71973 30.5812,9.31359 30.9846,7.86813 31.39172,6.04258 31.6964,4.15827 31.89258,2.19463 31.9671,0.23944 31.9172,-1.80141 31.73871,-3.82199 31.41941,-5.89692 31.12437,-7.29565 31.20778,-6.93017 31.27569,-6.61697 31.3329,-6.34054 31.37951,-6.1057 31.41827,-5.90299 31.07238,-7.51401 30.62517,-9.168 30.08539,-10.80844 29.46994,-12.38852 28.75955,-13.95856 28.44722,-14.58455 28.33983,-14.79213 28.20377,-15.04993 28.03407,-15.36372 27.82875,-15.72864" id="Africa" fill="#44d32f"></polygon><polygon points="19.62666,-22.33373 20.42895,-20.97553 21.15264,-19.52806 21.7889,-18.00282 22.93727,-17.70024 24.01612,-17.49906 24.89779,-17.3543 24.24419,-18.79791 23.49176,-20.18288 23.50438,-20.67655 24.02411,-20.56011 24.82102,-19.86922 25.65344,-18.97774 26.32986,-18.12539 26.4299,-17.9837 25.5692,-19.16605 24.58111,-20.34202 23.9129,-21.07492 24.62903,-20.35956 25.37852,-19.43923 25.84413,-18.81579 26.30957,-18.15928 26.90683,-17.26196 27.45909,-16.36921 27.87844,-15.64435 27.54919,-16.21712 27.1708,-16.84341 26.73787,-17.52254 26.2395,-18.26039 25.68438,-19.03328 25.08121,-19.82135 24.35691,-20.70492 23.18493,-22.00936 21.92502,-23.2647 20.92617,-24.1671 20.32106,-24.67808 19.65586,-25.21111 18.34273,-26.182 16.87788,-27.14941 15.3353,-28.04963 13.76802,-28.85125 12.27833,-29.51602 12.85381,-29.27 13.35176,-29.04623 13.76859,-28.85098 14.5117,-28.47553 15.27638,-28.00918 15.94146,-27.50296 16.61566,-27.20935 17.19488,-26.92829 16.58256,-27.33078 16.17365,-27.57474 16.05296,-27.64517 17.21858,-26.93462 18.29399,-26.21608 19.19206,-25.56595 19.54295,-25.29153 19.45218,-25.27668 19.60923,-24.97369 19.77354,-24.55388 19.69852,-24.20501 19.49575,-23.82844 19.42686,-23.25307" id="Europe" fill="#44d32f"></polygon><polygon points="26.22975,-18.27439 25.65015,-19.07939 25.01029,-19.91076 24.3246,-20.74287 23.59264,-21.57175 22.47807,-22.7308 21.30877,-23.83043 20.05578,-24.89415 18.76202,-25.88319 17.4201,-26.80472 15.91226,-27.7264 14.34158,-28.57048 12.74087,-29.31933 12.45676,-29.44116 13.32697,-29.05762 14.14159,-28.66999 14.88559,-28.29085 15.37089,-28.03014 14.51636,-28.48207 13.57481,-28.94266 12.56052,-29.39705 11.329,-29.89325 10.74431,-30.10835 11.06543,-29.99182 9.27916,-30.59167 7.67894,-31.03203 7.01987,-31.18773 6.30101,-31.34087 5.50201,-31.49097 4.6542,-31.62738 3.81173,-31.73994 3.34005,-31.79303 2.77885,-31.84699 1.69345,-31.92311 0.56135,-31.96307 0.60583,-31.96226 1.77907,-31.91846 2.94419,-31.83213 4.08945,-31.70535 5.20317,-31.54172 6.27288,-31.34652 7.29784,-31.12386 8.25685,-30.88329 9.17661,-30.62259 10.16386,-30.30922 11.17803,-29.95004 12.14762,-29.57006 11.69265,-29.7529 11.12135,-29.97113 11.10803,-29.97607 11.44766,-29.84802 11.89757,-29.67155 12.38613,-29.47095 12.57842,-29.38939 11.22573,-29.93219 10.30659,-30.26098 9.50164,-30.5233 8.7951,-30.73433 8.04297,-30.93968 6.57715,-31.28409 6.32416,-31.33621 4.66055,-31.62645 4.08303,-31.70618 4.87647,-31.59388 5.82503,-31.43282 6.92779,-31.20831 6.558,-31.28811 6.00035,-31.39982 5.36495,-31.51461 1.98331,-31.90642 1.64728,-31.92553 5.32997,-31.52054 5.83516,-31.43094 6.12856,-31.37505 6.50354,-31.29947 10.0927,-30.33299 14.32964,-28.57646 19.05812,-25.66595 24.21028,-20.8762 28.289,-14.88911 30.73059,-8.80818 30.1985,-10.48825 29.63222,-11.9952 29.1257,-13.17751 28.66879,-14.14403 29.45507,-12.42384 30.66133,-9.04632 31.47158,-5.61182 31.883,-2.3296 31.95683,0.84491 31.74387,3.77882 31.30275,6.48776 30.70334,8.90269 29.97287,11.11667 29.14302,13.13916 28.22552,15.0091 29.00853,13.43346 29.95932,11.15313 30.70602,8.89344 31.24913,6.74127 31.63878,4.5761 31.88464,2.30713 31.96799,0.02916 31.89606,-2.14341 31.68176,-4.2684 31.33785,-6.31601 30.86248,-8.33428 30.26798,-10.28603 30.30049,-10.18985 30.40894,-9.86152 30.6319,-9.14548 30.83253,-8.44441 31.00058,-7.80496 30.90466,-8.17648 30.74159,-8.76969 30.32467,-10.11768 29.68898,-11.85401 28.96713,-13.52252 28.48491,-14.5108 27.96937,-15.48119 27.26075,-16.69744" id="Asia" fill="#373737" visibility="hidden"></polygon><polygon points="-21.35418,23.78974 -19.36341,25.43642 -16.96687,27.09388 -14.73673,28.36868 -12.60738,29.37698 -10.67782,30.132 -8.90326,30.70318 -6.22643,31.35578 -3.96453,31.72122 -2.74959,31.84953 -1.73796,31.92072 -2.0429,31.90266 -2.95729,31.83092 -3.7533,31.7469 -4.65615,31.6271 -6.1029,31.38005 -7.58268,31.05569 -9.09131,30.64802 -10.60594,30.15737 -11.87383,29.68106 -12.65279,29.35745 -12.85748,29.26838 -12.43512,29.45031 -12.42843,29.45314 -13.32647,29.05784 -14.14851,28.66658 -15.22903,28.10747 -16.3245,27.4857 -17.44651,26.78754 -18.58429,26.0111 -19.50736,25.32619 -20.44221,24.57782 -21.39042,23.75717 -22.14722,23.05328 -22.47263,22.73618 -22.78567,22.42245 -23.0879,22.11113 -21.43112,23.72046 -19.65759,25.20976 -20.2861,24.70683" id="Australia" fill="#44d32f" visibility="hidden"></polygon><polygon points="-18.30153,-5.73857 -19.64566,-7.11098 -19.38578,-8.86324 -18.63696,-10.70672 -17.45047,-11.61724 -15.54464,-11.29157 -13.65098,-11.1876 -12.22472,-12.6648 -10.85137,-14.06945 -9.47824,-15.46084 -8.11134,-16.83024 -6.78388,-18.15602 -5.54297,-19.39163 -4.35143,-20.58409 -3.20282,-21.74566 -2.11607,-22.81019 -0.63217,-23.51283 0.78232,-24.17963 2.12875,-24.81431 3.39267,-25.41307 2.44504,-26.17746 0.72508,-26.97174 -0.87375,-27.67862 -2.37126,-28.31709 -3.7364,-28.88824 -4.94206,-29.38533 -5.69261,-28.86248 -6.49373,-28.15135 -7.35612,-27.36664 -8.30752,-26.71817 -9.68657,-27.05834 -10.16239,-27.47278 -9.02739,-28.1066 -7.92722,-28.69826 -7.86202,-29.05543 -9.00162,-29.16289 -9.97336,-29.24515 -10.81109,-29.308 -11.49469,-29.35061 -12.01753,-29.37679 -12.38547,-29.38183 -12.57448,-29.38035 -12.60136,-29.37956 -12.5009,-29.42245 -12.65809,-29.35517 -13.07927,-29.16995 -13.45898,-28.99671 -13.78793,-28.84174 -14.44013,-28.52079 -15.41516,-28.00582 -16.38552,-27.44937 -17.31154,-26.87496 -18.22522,-26.26394 -18.70106,-25.92727 -18.74862,-25.8929 -18.72349,-25.91108 -18.62423,-25.98251 -18.45125,-26.10564 -18.20151,-26.27995 -17.85588,-26.4713 -18.55774,-25.91008 -19.74078,-24.93787 -20.86204,-23.91642 -21.9527,-22.82234 -23.02634,-21.64025 -24.07758,-20.37196 -24.93591,-19.06442 -25.53213,-17.63874 -26.00033,-16.17404 -26.37633,-14.58111 -26.64531,-12.95374 -26.82626,-11.22539 -26.91205,-9.46282 -26.91066,-7.63887 -26.83591,-5.78536 -26.69313,-3.84442 -25.8733,-2.74834 -24.5375,-2.14126 -23.06725,-1.52408 -21.42827,-0.88167 -19.69485,-0.24116 -17.83477,0.41236 -16.06361,0.68501 -14.97427,-1.16639 -15.50075,-2.76191 -16.95204,-4.2773" id="North_America" fill="#44d32f"></polygon><polygon points="-15.96988,1.02066 -14.88953,2.80695 -13.80824,4.56717 -12.69096,6.37082 -12.77443,8.23473 -13.38307,10.12493 -13.95959,11.9802 -13.65185,13.66376 -12.58119,15.24272 -11.5456,16.75468 -10.54525,18.20648 -9.56084,19.63063 -8.95904,21.03964 -8.7066,22.50162 -8.48164,23.82123 -8.26498,25.08241 -8.05602,26.20906 -7.83833,27.25494 -7.62073,28.15908 -7.37929,28.98229 -7.1128,29.67548 -6.80307,30.26621 -6.45559,30.75347 -5.98893,31.09339 -5.10386,31.19041 -4.46083,31.15736 -4.3565,30.74806 -4.14913,30.21691 -3.85071,29.58303 -3.46926,28.82769 -2.97653,27.96005 -1.60504,27.21083 -0.14707,26.39647 1.45049,25.48489 3.11738,24.49999 4.81479,23.45714 6.58768,22.32192 7.88318,20.94106 8.9569,19.397 10.03135,17.72061 11.03561,16.02276 12.02294,14.20488 12.87668,12.37701 13.38087,10.41888 13.81126,8.40812 12.35862,7.43264 10.45668,6.62877 8.45809,5.7859 6.38496,4.92818 4.27102,4.06623 2.13577,3.20569 -0.06209,2.32655 -2.26061,1.44902 -4.44811,0.58041 -6.66247,-0.29872 -8.87115,-0.87167 -11.16077,-1.2783 -13.35326,-1.67619 -14.85791,-0.74707" id="South_America" fill="#44d32f"></polygon><polygon points="-12.11265,29.5844 -12.82395,29.28309 -12.20534,29.54628 -11.21312,29.93692 -11.41066,29.86218" id="Tazmania" fill="#44d32f" visibility="hidden"></polygon></g><path d="M566.4816,172.944c0,-18.53821 15.02819,-33.5664 33.5664,-33.5664c18.53821,0 33.5664,15.02819 33.5664,33.5664c0,18.53821 -15.02819,33.5664 -33.5664,33.5664c-18.53821,0 -33.5664,-15.02819 -33.5664,-33.5664z" data-paper-data="null" fill="url(#color-48)" stroke-miterlimit="10" font-size="12" visibility="hidden"></path></g></g></g><g id="testing" fill="none" stroke="none" stroke-width="1" stroke-linecap="butt" stroke-linejoin="miter" stroke-miterlimit="none" stroke-dasharray="" stroke-dashoffset="0" font-family="sans-serif" font-weight="normal" font-size="16" text-anchor="start" mix-blend-mode="normal"><g transform="translate(0,-2.7)" data-paper-data="null" id="Layer_1 1" visibility="hidden"><path d="M735.4,556.9l-510.8,0l-0.1,0c-1.1,-0.3 -2.2,-0.7 -3.4,-1c-2,-0.6 -4.1,-1.4 -6.2,-2.1c-8.1,-2.7 -15.9,-5.9 -23.7,-9.5c-8.2,-3.6 -16.4,-7.5 -24.5,-11.7c-7.9,-4 -15.3,-8.6 -22.9,-13.3c-7.3,-4.6 -14.3,-9.6 -20.9,-14.8c-7.5,-5.6 -14.6,-11.5 -21.8,-17.4c-6.5,-5.5 -13.1,-11 -19.2,-17.2c-6.6,-6.6 -13.4,-12.9 -19.4,-20.2c-6,-7.1 -11.9,-14.6 -17.6,-22.1c-5.5,-7.4 -10.5,-15.3 -15,-23.4c-4.6,-7.9 -8.6,-16.2 -12,-24.9c-1.7,-4.5 -3.5,-9 -4.8,-13.6c-1.2,-4.6 -2.5,-9.1 -3.6,-13.7c-2.2,-9.3 -4.4,-18.5 -5.8,-28c-1.4,-9.7 -2.3,-19.4 -3.1,-29.1c-0.7,-9.6 -0.6,-19.2 -0.1,-28.7c0.5,-9.4 1.3,-18.7 2.8,-28.1c1.4,-9.7 3.5,-19.2 5.7,-28.6c2.2,-9.3 4.7,-18.4 8.1,-27.2c3.5,-9 7.8,-17.6 12.3,-25.9c4.5,-8.3 9.6,-16.1 15,-23.5c5.2,-7.2 10.8,-14.4 16.5,-21.1c6.1,-7.2 12.7,-13.8 19.5,-20.4c6.4,-6.4 13.2,-12.2 19.9,-18c6.7,-5.8 13.8,-11.4 20.8,-16.8c7.2,-5.6 14.6,-10.8 22.1,-15.7c7.5,-4.9 15,-9.4 22.9,-13.4c7.8,-4.1 15.5,-7.7 23.4,-11.2c8,-3.5 15.9,-6.8 24,-9.7c2.1,-0.7 4.2,-1.4 6.3,-2.1c0.9,-0.3 1.9,-0.6 2.9,-0.9c0.5,-0.1 1.2,-0.6 1.7,-0.6l511,0l0,0c-0.1,0 -0.1,0 -0.2,0c8.1,2.5 16.2,5.2 24.1,8.6c8.1,3.3 16.1,6.9 24,10.7c8.1,4 16.1,8 23.9,12.8c7.5,4.5 14.6,9.1 21.7,14.3c7.5,5.4 14.5,10.9 21.8,16.7c6.7,5.5 13.6,11.2 20,17.2c6.7,6.1 13.5,12.5 19.7,19.2c6.2,6.7 12.1,13.6 17.7,20.9c5.6,7.4 11.3,14.8 16.2,22.7c4.8,7.7 9.4,15.8 13.4,24.3c4,8.7 7.6,17.7 10.2,27.2c1.2,4.6 2.3,9.3 3.5,13.7c1.1,4.6 2.2,9.3 3.1,13.7c1.8,9.5 3.2,19.1 4.1,28.7c0.8,9.7 1.4,19.4 1.3,29.1c-0.1,9.4 -0.8,18.7 -1.8,28.1c-1,9.7 -2.6,19.2 -4.7,28.6c-1,4.8 -2.1,9.5 -3.4,14.2c-1.1,4.6 -2.2,9.3 -3.7,13.7c-2.9,9 -6.3,17.7 -10.6,26c-4.2,8.4 -8.8,16.6 -14,24.3c-5.2,7.9 -11,15.5 -16.9,22.9c-5.6,7.1 -11.4,13.8 -17.8,20.3c-6.3,6.6 -13,12.9 -19.9,19.2c-6.5,5.8 -13.4,11.6 -20.2,16.9c-7.3,5.7 -14.5,11.2 -22,16.5c-3.5,2.6 -7.3,4.8 -10.8,7.1c-3.7,2.3 -7.5,4.8 -11.3,6.9c-8,4.5 -15.9,8.5 -24.1,12.3c-8,3.6 -15.8,7.1 -23.9,10.4c-6.1,2.5 -12.6,4.7 -19.4,6.7" data-paper-data="null" id="remove" stroke="#000000" stroke-miterlimit="1"></path><polygon points="475.7,189.2 451.3,180 428.3,189.3 420.7,199.7 413.7,209.6 408.3,223.2 403.2,236.5 398.1,249.4 393.9,260.3 404.8,274.3 414.2,286.2 423.6,298.1 444,291.7 460.5,286.5 468.3,296.3 477.1,307.5 488.2,321.6 487,340 485.5,359.1 484,381.6 499.9,410 519.6,422.7 525.2,410.6 532.6,394.6 546.1,374.4 558.9,355.4 569.3,340 583.3,319.2 587.4,301.4 591.8,282.2 595.5,265.8 600.5,244.5 547.5,247.7 543.6,235.3 537.3,215.7 531.6,197.3" data-paper-data="null" id="Africa" fill="#44d32f" stroke-miterlimit="4"></polygon><polygon points="412.3,155.2 404.8,185.1 433.5,186 441.7,162.8 461.1,161.9 465.2,165.3 472.2,169.5 489.3,178.4 467.3,156.1 481.9,162.1 487.6,166.8 502.4,171.5 528.8,190.2 562.2,179.9 536,158.6 530.1,130.9 508.1,119 495.5,72.5 466.3,86.2 445.6,106.5 464.6,108.4 477.4,99.2 493.6,96 493.3,106.4 478.1,121.6 459.6,125.1 447.3,132.6 421.5,144.7" data-paper-data="null" id="Europe" fill="#44d32f" stroke-miterlimit="4"></polygon><polygon points="559.4,176.4 530.4,150.5 509.8,105 502.4,70.6 539.3,94 570.8,81.4 581.9,74.7 593.1,82.5 600.3,64.8 650.1,67.3 669.9,75.7 774,80.1 795.6,93.5 805.7,95.8 790.4,100.7 786.2,114.1 789.9,150.5 783.7,144.6 765.8,107.6 753.9,107.6 753.9,118 740.3,121.7 761.7,150.2 758.7,179.2 728.8,184.1 738.1,211.3 728.6,241.7 713.1,266 680.1,238.3 676.1,251.9 672.3,264.6 668.6,276.8 665.4,287.9 659.1,304.5 654,317.8 650.2,327.9 645.6,340 638.3,329.1 629,315.3 622,304.8 619.6,293.8 616.6,279.8 613.8,267.2 611,254.1 608.8,243.8 605.8,230.1 586.5,230.1 556.8,238.3 537.1,230.1 537.1,202.4 558.8,190.2" data-paper-data="null" id="Asia" fill="#373737" stroke-miterlimit="4"></polygon><polygon points="814.6,359.1 793.8,362.9 771.5,391.4 753.8,393.3 737.2,413.9 740.5,446.1 786.1,429.3 800.8,441.7 802.7,461.9 825.1,458.3 850.2,426.1 850.2,391.4 831.9,364.6 815.6,377.5" data-paper-data="null" id="Australia" fill="#44d32f" stroke-miterlimit="4"></polygon><polygon points="197.3,252.1 188.3,243.6 191.4,235.4 196.7,221.8 219.1,226.4 231,213.5 239.1,204.7 255.3,187.2 264.5,177.3 280.7,159.8 318.5,138.5 303.2,123.8 291.9,113.1 276.5,98.4 252.6,127.4 235.9,119.8 258.8,102.3 239.1,96.5 228.7,93.4 219.9,90.8 204.1,86.1 194.5,83.4 178.5,78.6 164,74.4 124.5,82.4 113.6,91 99.5,102.1 85.2,113.3 153.3,113.3 144.5,130.2 137.5,143.4 132.3,153.2 124,168.8 128.4,187.2 133,206.6 136.6,222.1 139.2,233.1 142.5,246.8 146.5,264.2 207.8,284.3 215.5,271.1" data-paper-data="null" id="North_America" fill="#44d32f" stroke-miterlimit="4"></polygon><polygon points="209,284.6 218.4,300.3 225.8,312.7 221.9,326.1 217.2,342.6 225.8,356.1 233.9,368.8 243.9,384.5 247.9,403.9 251.8,423.5 254.7,437.9 259.6,462.3 262.4,475.5 266,494 284.4,494.9 284.9,483.5 285.4,467.4 285.9,455.4 286.4,443.4 298.3,428.8 312.6,411.5 326.3,394.9 329.4,380.3 333.5,360.7 337.5,341.5 338.1,318.5 322.7,311.6 290.4,296.8 263.7,284.6 246.4,276.8 217.4,271.1" data-paper-data="null" id="South_America" fill="#44d32f" stroke-miterlimit="4"></polygon><polygon points="806.8,467.3 818.6,467.1 806.7,483.3" data-paper-data="null" id="Tazmania" fill="#44d32f" stroke-miterlimit="4"></polygon></g></g></g>
</svg>
