<?xml version="1.0" encoding="utf-8"?>
<!-- Generator: Adobe Illustrator 17.1.0, SVG Export Plug-In . SVG Version: 6.00 Build 0)  -->
<!DOCTYPE svg PUBLIC "-//W3C//DTD SVG 1.1//EN" "http://www.w3.org/Graphics/SVG/1.1/DTD/svg11.dtd">
<svg version="1.1" id="Layer_1" xmlns="http://www.w3.org/2000/svg" xmlns:xlink="http://www.w3.org/1999/xlink" x="0px" y="0px"
	 viewBox="0 0 960 560" enable-background="new 0 0 960 560" xml:space="preserve">
<path id="ocean" opacity="1.000000e-02" fill="none" stroke="#000000" stroke-miterlimit="1" d="M734.2,532H225.5h-0.1
	c-1.1-0.3-2.2-0.7-3.4-1c-2-0.6-4.1-1.3-6.2-2c-8-2.6-15.8-5.7-23.6-9.1c-8.2-3.5-16.3-7.2-24.4-11.2c-7.8-3.8-15.3-8.3-22.8-12.8
	c-7.2-4.4-14.2-9.2-20.9-14.2c-7.4-5.4-14.6-11-21.7-16.7c-6.5-5.3-13-10.6-19.1-16.5c-6.6-6.3-13.3-12.4-19.3-19.4
	c-6-6.8-11.9-14-17.5-21.2c-5.5-7.1-10.4-14.7-15-22.5c-4.5-7.6-8.6-15.6-12-23.9c-1.7-4.3-3.5-8.6-4.8-13.1
	c-1.2-4.4-2.5-8.7-3.6-13.2c-2.2-8.9-4.3-17.8-5.8-26.9c-1.4-9.3-2.3-18.6-3.1-27.9c-0.7-9.2-0.6-18.4-0.1-27.6c0.5-9,1.3-18,2.8-27
	c1.4-9.3,3.5-18.4,5.7-27.5c2.2-8.9,4.6-17.7,8.1-26.1c3.5-8.6,7.7-16.9,12.3-24.9c4.5-8,9.6-15.5,15-22.6
	c5.2-6.9,10.7-13.8,16.4-20.3c6.1-6.9,12.7-13.3,19.4-19.6c6.4-6.1,13.1-11.7,19.8-17.3c6.7-5.6,13.7-10.9,20.7-16.1
	c7.2-5.4,14.6-10.4,22.1-15.1c7.4-4.7,15-9,22.8-12.9c7.7-3.9,15.5-7.4,23.3-10.8c7.9-3.4,15.8-6.5,23.9-9.3c2.1-0.7,4.2-1.3,6.3-2
	c0.9-0.3,1.9-0.6,2.9-0.9c0.5-0.1,1.2-0.6,1.7-0.6h509l0,0c-0.1,0-0.1,0-0.2,0c8.1,2.4,16.1,5,24,8.3c8.1,3.2,16,6.6,23.9,10.3
	c8.1,3.8,16,7.7,23.8,12.3c7.4,4.3,14.6,8.7,21.6,13.7c7.4,5.2,14.5,10.5,21.7,16c6.7,5.3,13.5,10.8,19.9,16.5
	c6.7,5.9,13.4,12,19.6,18.4c6.2,6.4,12.1,13.1,17.7,20.1c5.6,7.1,11.2,14.2,16.1,21.8c4.8,7.4,9.4,15.2,13.3,23.3
	c4,8.4,7.5,17,10.1,26.1c1.2,4.4,2.3,8.9,3.5,13.2c1.1,4.4,2.2,8.9,3.1,13.2c1.8,9.1,3.2,18.3,4.1,27.6c0.8,9.3,1.4,18.6,1.3,27.9
	c-0.1,9-0.8,18-1.8,27c-1,9.3-2.6,18.4-4.6,27.5c-1,4.6-2.1,9.1-3.4,13.6c-1.1,4.4-2.2,8.9-3.7,13.2c-2.9,8.6-6.3,17-10.5,25
	c-4.2,8.1-8.8,15.9-13.9,23.3c-5.2,7.6-10.9,14.9-16.8,22c-5.6,6.8-11.4,13.3-17.8,19.5c-6.5,6.3-13.2,12.4-20,18.4
	c-6.5,5.6-13.3,11.1-20.1,16.2c-7.2,5.5-14.4,10.8-21.9,15.8c-3.5,2.5-7.2,4.6-10.7,6.8c-3.7,2.2-7.4,4.6-11.2,6.6
	c-7.9,4.3-15.8,8.2-24,11.8c-7.9,3.5-15.7,6.8-23.8,10C747.4,528,740.9,530.1,734.2,532"/>
<polygon opacity="0.34" fill="#565656" points="481.9,177.6 458.5,169.7 436.5,177.7 422.4,195.2 403.5,239.1 432,271.8 
	467.3,261.7 493.9,292.1 489.8,344 505,368.5 523.9,379.5 536.4,355.2 571.1,286.1 601.4,225.4 550.7,228.2 535.4,184.6 "/>
<polygon opacity="0.34" fill="#565656" points="181.3,74 143,81 104.9,108.1 171,108.1 162.4,122.8 155.6,134.4 150.6,143 
	142.6,156.6 146.8,172.8 151.2,189.7 154.7,203.3 160.4,224.9 164.3,240.1 213.8,241.1 241.2,282.6 232.8,308.7 258.8,345.4 
	280.2,441.2 298,442 299.9,396.9 338.6,354.5 349.5,307.8 350,287.7 261.2,251.1 233,246.1 204.8,222.1 207.8,215 213,203 
	234.7,207 254.1,188.1 269.8,172.8 294.4,148.8 331.1,130.1 316.2,117.3 305.3,107.9 290.3,95 267.1,120.4 251,113.7 273.1,98.4 
	254.1,93.4 244,90.7 235.4,88.4 220.1,84.3 210.8,81.9 195.3,77.7 "/>
<polygon opacity="0.34" fill="#565656" points="421.1,148.1 414,174.1 441.5,174.8 449.3,154.7 467.9,154 471.8,156.9 478.6,160.6 
	494.9,168.2 473.8,148.9 487.9,154.2 493.2,158.2 507.5,162.3 532.7,178.5 564.8,169.6 539.6,151.1 534,127.1 512.9,116.9 
	500.9,76.6 472.9,88.5 453,106.1 471.2,107.7 483.5,99.8 499,97 498.7,106 484.1,119.1 466.5,122.1 454.7,128.6 430,139.1 "/>
<polygon opacity="0.34" fill="#565656" points="567.5,166.5 537,144.1 515.3,104.7 507.5,75 546.3,95.3 579.6,84.4 591.2,78.5 
	603,85.3 610.6,69.9 663.1,72.1 683.9,79.4 793.7,83.2 816.4,94.8 827,96.8 811,101 806.5,112.6 810.4,144.1 803.9,139 785,107 
	772.5,107 772.5,116 758.2,119.2 780.7,143.8 777.5,168.9 746,173.2 755.8,196.7 745.8,223 729.5,244 694.7,220 679.2,263 
	658.4,308 633.5,277.6 616.4,213 596.1,213 564.8,220 544,213 544,189 566.8,178.5 "/>
<polygon opacity="0.34" fill="#565656" points="806.6,324.6 786.6,327.8 765.2,352.5 748.3,354.1 732.4,372 735.6,399.8 
	779.3,385.3 793.4,396 795.2,413.5 816.6,410.3 840.7,382.5 840.7,352.5 823.1,329.3 807.5,340.4 "/>
<polygon opacity="0.34" fill="#565656" points="799.1,418.2 810.4,418 799,432 "/>
</svg>
